<svg width="68" height="68" viewBox="0 0 68 68" fill="none" xmlns="http://www.w3.org/2000/svg">
<path fill-rule="evenodd" clip-rule="evenodd" d="M32.4269 0.643524C33.5082 0.036794 34.8395 0.036794 35.9192 0.643524C41.2619 3.64214 57.3395 12.6683 62.6838 15.6669C63.7651 16.272 64.4307 17.3931 64.4307 18.6066C64.4307 24.6038 64.4307 42.6544 64.4307 48.6517C64.4307 49.8651 63.7651 50.9862 62.6838 51.5929C57.3411 54.5916 41.2635 63.6177 35.9192 66.6163C34.8379 67.223 33.5066 67.223 32.4269 66.6163C27.0842 63.6177 11.0067 54.5916 5.66234 51.5929C4.58264 50.9862 3.91699 49.8667 3.91699 48.6533C3.91699 42.656 3.91699 24.6054 3.91699 18.6082C3.91699 17.3947 4.58264 16.2736 5.66393 15.6669C11.0051 12.6683 27.0858 3.64214 32.4269 0.643524Z" fill="#EAE7C7"/>
<path fill-rule="evenodd" clip-rule="evenodd" d="M4.4011 50.1978C3.97751 49.6309 3.91699 49.0926 3.91699 48.368C3.91699 42.4058 3.91699 24.4587 3.91699 18.4949C3.91699 17.2879 4.58105 16.1731 5.65915 15.5712C10.9828 12.5901 27.0062 3.61653 32.3298 0.633839C33.4079 0.0302942 34.8682 0.0430342 35.9463 0.646579C41.2699 3.62768 57.2392 12.5248 62.5628 15.5059C62.9928 15.7479 63.3208 16.0394 63.6138 16.4231L4.4011 50.1978Z" fill="#EAE7C7"/>
<path fill-rule="evenodd" clip-rule="evenodd" d="M34.1739 11.333C46.4789 11.333 56.4685 21.3226 56.4685 33.6275C56.4685 45.9325 46.4789 55.9221 34.1739 55.9221C21.8689 55.9221 11.8794 45.9325 11.8794 33.6275C11.8794 21.3226 21.8689 11.333 34.1739 11.333ZM34.1739 22.4803C40.3256 22.4803 45.3212 27.4743 45.3212 33.6275C45.3212 39.7792 40.3256 44.7748 34.1739 44.7748C28.0222 44.7748 23.0267 39.7792 23.0267 33.6275C23.0267 27.4743 28.0206 22.4803 34.1739 22.4803Z" fill="black"/>
<path fill-rule="evenodd" clip-rule="evenodd" d="M63.61 16.4385C64.4317 17.2076 64.4158 18.367 64.4158 19.2794C64.4158 25.3228 64.3648 42.5119 64.4301 48.5553C64.4365 49.1859 64.2279 49.85 63.9158 50.35L33.5251 33.6291L63.61 16.4385Z" fill="#EAE7C7"/>
</svg>
