<svg width="68" height="68" viewBox="0 0 68 68" fill="none" xmlns="http://www.w3.org/2000/svg">
<path fill-rule="evenodd" clip-rule="evenodd" d="M32.6906 1.51657C33.7719 0.909841 35.1032 0.909841 36.1829 1.51657C41.5256 4.51519 57.6032 13.5413 62.9475 16.5399C64.0288 17.145 64.6944 18.2661 64.6944 19.4796C64.6944 25.4768 64.6944 43.5274 64.6944 49.5247C64.6944 50.7381 64.0288 51.8592 62.9475 52.466C57.6047 55.4646 41.5272 64.4907 36.1829 67.4893C35.1016 68.096 33.7703 68.096 32.6906 67.4893C27.3479 64.4907 11.2703 55.4646 5.92601 52.466C4.84632 51.8592 4.18066 50.7397 4.18066 49.5263C4.18066 43.529 4.18066 25.4784 4.18066 19.4812C4.18066 18.2677 4.84632 17.1466 5.9276 16.5399C11.2687 13.5413 27.3495 4.51519 32.6906 1.51657Z" fill="#EAE7C7"/>
<path fill-rule="evenodd" clip-rule="evenodd" d="M4.66477 51.0708C4.24118 50.5039 4.18066 49.9657 4.18066 49.2411C4.18066 43.2789 4.18066 25.3318 4.18066 19.368C4.18066 18.1609 4.84472 17.0462 5.92282 16.4442C11.2464 13.4631 27.2698 4.48958 32.5935 1.50689C33.6716 0.903341 35.1319 0.916081 36.21 1.51963C41.5336 4.50072 57.5028 13.3978 62.8264 16.3789C63.2564 16.621 63.5845 16.9124 63.8775 17.2962L4.66477 51.0708Z" fill="#EAE7C7"/>
<path fill-rule="evenodd" clip-rule="evenodd" d="M34.4376 12.208C46.7426 12.208 56.7321 22.1976 56.7321 34.5025C56.7321 46.8075 46.7426 56.7971 34.4376 56.7971C22.1326 56.7971 12.1431 46.8075 12.1431 34.5025C12.1431 22.1976 22.1326 12.208 34.4376 12.208ZM34.4376 23.3553C40.5893 23.3553 45.5849 28.3493 45.5849 34.5025C45.5849 40.6542 40.5893 45.6498 34.4376 45.6498C28.2859 45.6498 23.2903 40.6542 23.2903 34.5025C23.2903 28.3493 28.2843 23.3553 34.4376 23.3553Z" fill="#08090A"/>
<path fill-rule="evenodd" clip-rule="evenodd" d="M63.8744 17.3125C64.6962 18.0817 64.6802 19.241 64.6802 20.1535C64.6802 26.1969 64.6293 43.386 64.6946 49.4294C64.7009 50.06 64.4923 50.7241 64.1802 51.2241L33.7896 34.5032L63.8744 17.3125Z" fill="#EAE7C7"/>
<path opacity="0.05" d="M34.4375 12.2087C42.6037 12.2087 49.7284 16.6214 53.6124 23.176L43.9414 28.7019C41.9811 25.501 38.4617 23.3559 34.4375 23.3559C28.2842 23.3559 23.2903 28.3499 23.2903 34.5032C23.2903 40.6549 28.2858 45.6505 34.4375 45.6505C38.5302 45.6505 42.1005 43.4338 44.0385 40.1421L53.8035 45.5151C49.9641 52.2465 42.7343 56.7978 34.4375 56.7978C22.1325 56.7978 12.143 46.8082 12.143 34.5032C12.143 22.1982 22.1325 12.2087 34.4375 12.2087ZM34.4375 10.6162C21.2662 10.6162 10.5505 21.3319 10.5505 34.5032C10.5505 47.6745 21.2662 58.3902 34.4375 58.3902C42.9843 58.3902 50.9355 53.7593 55.1874 46.3034L55.9884 44.8988L54.5711 44.1185L44.8061 38.7455L43.4509 38.0003L42.6658 39.3332C40.9507 42.2474 37.7976 44.058 34.4375 44.058C29.1697 44.058 24.8827 39.7711 24.8827 34.5032C24.8827 29.2353 29.1697 24.9484 34.4375 24.9484C37.7801 24.9484 40.8249 26.6619 42.583 29.5331L43.3904 30.8517L44.7312 30.0857L54.4023 24.5599L55.8069 23.7572L54.982 22.3654C50.6887 15.1181 42.8171 10.6162 34.4375 10.6162Z" fill="#08090A"/>
<path opacity="0.07" d="M34.4375 12.2083C42.6036 12.2083 49.7283 16.6211 53.6123 23.1757L43.9413 28.7015C41.981 25.5007 38.4616 23.3556 34.4375 23.3556C28.2842 23.3556 23.2902 28.3496 23.2902 34.5029C23.2902 40.6546 28.2858 45.6502 34.4375 45.6502C38.5301 45.6502 42.1004 43.4334 44.0384 40.1418L53.8034 45.5148C49.964 52.2461 42.7342 56.7974 34.4375 56.7974C22.1325 56.7974 12.1429 46.8079 12.1429 34.5029C12.1429 22.1979 22.1325 12.2083 34.4375 12.2083ZM34.4375 11.4121C21.7057 11.4121 11.3467 21.7711 11.3467 34.5029C11.3467 47.2347 21.7057 57.5937 34.4375 57.5937C42.6992 57.5937 50.3844 53.1156 54.4946 45.9097L54.8959 45.2074L54.1872 44.8173L44.4222 39.4443L43.7454 39.0717L43.3537 39.7373C41.4937 42.8936 38.0778 44.8539 34.4375 44.8539C28.73 44.8539 24.0864 40.2103 24.0864 34.5029C24.0864 28.7955 28.73 24.1518 34.4375 24.1518C38.0603 24.1518 41.3583 26.0087 43.2629 29.1172L43.6658 29.7764L44.3362 29.3927L54.0073 23.8668L54.7096 23.4655L54.2971 22.7696C50.1455 15.7643 42.5367 11.4121 34.4375 11.4121Z" fill="#08090A"/>
</svg>
