<svg width="67" height="68" viewBox="0 0 67 68" fill="none" xmlns="http://www.w3.org/2000/svg">
<path fill-rule="evenodd" clip-rule="evenodd" d="M31.6906 1.51657C32.7719 0.909841 34.1032 0.909841 35.1829 1.51657C40.5256 4.51519 56.6032 13.5413 61.9475 16.5399C63.0288 17.145 63.6944 18.2661 63.6944 19.4796C63.6944 25.4768 63.6944 43.5274 63.6944 49.5247C63.6944 50.7381 63.0288 51.8592 61.9475 52.466C56.6047 55.4646 40.5272 64.4907 35.1829 67.4893C34.1016 68.096 32.7703 68.096 31.6906 67.4893C26.3479 64.4907 10.2703 55.4646 4.92601 52.466C3.84632 51.8592 3.18066 50.7397 3.18066 49.5263C3.18066 43.529 3.18066 25.4784 3.18066 19.4812C3.18066 18.2677 3.84632 17.1466 4.9276 16.5399C10.2687 13.5413 26.3495 4.51519 31.6906 1.51657Z" fill="url(#paint0_linear_286_670)"/>
<path fill-rule="evenodd" clip-rule="evenodd" d="M3.66477 51.0708C3.24118 50.5039 3.18066 49.9657 3.18066 49.2411C3.18066 43.2789 3.18066 25.3318 3.18066 19.368C3.18066 18.1609 3.84472 17.0462 4.92282 16.4442C10.2464 13.4631 26.2698 4.48958 31.5935 1.50689C32.6716 0.903341 34.1319 0.916081 35.21 1.51963C40.5336 4.50072 56.5028 13.3978 61.8264 16.3789C62.2564 16.621 62.5845 16.9124 62.8775 17.2962L3.66477 51.0708Z" fill="url(#paint1_linear_286_670)"/>
<path fill-rule="evenodd" clip-rule="evenodd" d="M33.4376 12.208C45.7426 12.208 55.7321 22.1976 55.7321 34.5025C55.7321 46.8075 45.7426 56.7971 33.4376 56.7971C21.1326 56.7971 11.1431 46.8075 11.1431 34.5025C11.1431 22.1976 21.1326 12.208 33.4376 12.208ZM33.4376 23.3553C39.5893 23.3553 44.5849 28.3493 44.5849 34.5025C44.5849 40.6542 39.5893 45.6498 33.4376 45.6498C27.2859 45.6498 22.2903 40.6542 22.2903 34.5025C22.2903 28.3493 27.2843 23.3553 33.4376 23.3553Z" fill="white"/>
<path fill-rule="evenodd" clip-rule="evenodd" d="M62.8744 17.3125C63.6962 18.0817 63.6802 19.241 63.6802 20.1535C63.6802 26.1969 63.6293 43.386 63.6946 49.4294C63.7009 50.06 63.4923 50.7241 63.1802 51.2241L32.7896 34.5032L62.8744 17.3125Z" fill="url(#paint2_linear_286_670)"/>
<path opacity="0.05" d="M33.4375 12.2087C41.6037 12.2087 48.7284 16.6214 52.6124 23.176L42.9414 28.7019C40.9811 25.501 37.4617 23.3559 33.4375 23.3559C27.2842 23.3559 22.2903 28.3499 22.2903 34.5032C22.2903 40.6549 27.2858 45.6505 33.4375 45.6505C37.5302 45.6505 41.1005 43.4338 43.0385 40.1421L52.8035 45.5151C48.9641 52.2465 41.7343 56.7978 33.4375 56.7978C21.1325 56.7978 11.143 46.8082 11.143 34.5032C11.143 22.1982 21.1325 12.2087 33.4375 12.2087ZM33.4375 10.6162C20.2662 10.6162 9.55054 21.3319 9.55054 34.5032C9.55054 47.6745 20.2662 58.3902 33.4375 58.3902C41.9843 58.3902 49.9355 53.7593 54.1874 46.3034L54.9884 44.8988L53.5711 44.1185L43.8061 38.7455L42.4509 38.0003L41.6658 39.3332C39.9507 42.2474 36.7976 44.058 33.4375 44.058C28.1697 44.058 23.8827 39.7711 23.8827 34.5032C23.8827 29.2353 28.1697 24.9484 33.4375 24.9484C36.7801 24.9484 39.8249 26.6619 41.583 29.5331L42.3904 30.8517L43.7312 30.0857L53.4023 24.5599L54.8069 23.7572L53.982 22.3654C49.6887 15.1181 41.8171 10.6162 33.4375 10.6162Z" fill="black"/>
<path opacity="0.07" d="M33.4375 12.2083C41.6036 12.2083 48.7283 16.6211 52.6123 23.1757L42.9413 28.7015C40.981 25.5007 37.4616 23.3556 33.4375 23.3556C27.2842 23.3556 22.2902 28.3496 22.2902 34.5029C22.2902 40.6546 27.2858 45.6502 33.4375 45.6502C37.5301 45.6502 41.1004 43.4334 43.0384 40.1418L52.8034 45.5148C48.964 52.2461 41.7342 56.7974 33.4375 56.7974C21.1325 56.7974 11.1429 46.8079 11.1429 34.5029C11.1429 22.1979 21.1325 12.2083 33.4375 12.2083ZM33.4375 11.4121C20.7057 11.4121 10.3467 21.7711 10.3467 34.5029C10.3467 47.2347 20.7057 57.5937 33.4375 57.5937C41.6992 57.5937 49.3844 53.1156 53.4946 45.9097L53.8959 45.2074L53.1872 44.8173L43.4222 39.4443L42.7454 39.0717L42.3537 39.7373C40.4937 42.8936 37.0778 44.8539 33.4375 44.8539C27.73 44.8539 23.0864 40.2103 23.0864 34.5029C23.0864 28.7955 27.73 24.1518 33.4375 24.1518C37.0603 24.1518 40.3583 26.0087 42.2629 29.1172L42.6658 29.7764L43.3362 29.3927L53.0073 23.8668L53.7096 23.4655L53.2971 22.7696C49.1455 15.7643 41.5367 11.4121 33.4375 11.4121Z" fill="black"/>
<defs>
<linearGradient id="paint0_linear_286_670" x1="31.017" y1="27.8512" x2="45.9113" y2="68.7728" gradientUnits="userSpaceOnUse">
<stop stop-color="#3940A4"/>
<stop offset="1" stop-color="#293091"/>
</linearGradient>
<linearGradient id="paint1_linear_286_670" x1="21.3826" y1="1.66932" x2="37.7165" y2="46.545" gradientUnits="userSpaceOnUse">
<stop stop-color="#7B83EB"/>
<stop offset="1" stop-color="#5961C3"/>
</linearGradient>
<linearGradient id="paint2_linear_286_670" x1="44.6343" y1="16.7711" x2="58.4936" y2="54.8501" gradientUnits="userSpaceOnUse">
<stop stop-color="#5C65D6"/>
<stop offset="0.999" stop-color="#464EB0"/>
</linearGradient>
</defs>
</svg>
