<svg width="68" height="68" viewBox="0 0 68 68" fill="none" xmlns="http://www.w3.org/2000/svg">
<path d="M64.2806 19.7703C64.2802 18.6437 64.0392 17.6482 63.552 16.7938C63.0734 15.9537 62.3566 15.2495 61.3952 14.6928C53.459 10.1168 45.5152 5.55475 37.5816 0.974074C35.4428 -0.260719 33.369 -0.215703 31.246 1.03682C28.0872 2.89974 12.2721 11.9606 7.55938 14.6902C5.61856 15.8138 4.67415 17.5332 4.67369 19.7682C4.67065 28.9708 4.67369 38.1732 4.67065 47.3761C4.67112 48.4779 4.9018 49.4541 5.36759 50.2956C5.84644 51.1612 6.57323 51.8847 7.55682 52.454C12.2697 55.1837 28.087 64.2438 31.2451 66.1072C33.369 67.3604 35.4428 67.4052 37.5823 66.17C45.5161 61.589 53.4604 57.0273 61.3977 52.4512C62.3813 51.8821 63.1081 51.1581 63.587 50.2933C64.0521 49.4517 64.2832 48.4756 64.2837 47.3735C64.2837 47.3735 64.2837 28.9731 64.2806 19.7703" fill="#EAE7C7"/>
<path d="M34.5685 33.4824L5.36768 50.2956C5.84653 51.1611 6.57332 51.8847 7.55691 52.454C12.2698 55.1837 28.0871 64.2438 31.2452 66.1072C33.3691 67.3604 35.4429 67.4052 37.5824 66.1699C45.5163 61.589 53.4605 57.0272 61.3979 52.4512C62.3814 51.8821 63.1082 51.1581 63.5871 50.2932L34.5685 33.4824Z" fill="#EAE7C7"/>
<path d="M25.9194 38.4626C27.6186 41.429 30.8129 43.4297 34.4772 43.4297C38.1641 43.4297 41.3765 41.4036 43.0671 38.4055L34.5684 33.4824L25.9194 38.4626Z" fill="#EAE7C7"/>
<path d="M64.2806 19.7704C64.2802 18.6438 64.0392 17.6483 63.552 16.7939L34.5684 33.4826L63.587 50.2934C64.052 49.4519 64.2832 48.4758 64.2837 47.3737C64.2837 47.3737 64.2837 28.9733 64.2806 19.7704" fill="#EAE7C7"/>
<path d="M62.685 34.6844H60.4174V36.9524H58.1494V34.6844H55.882V32.417H58.1494V30.1494H60.4174V32.417H62.685V34.6844ZM54.4107 34.6844H52.1433V36.9524H49.8757V34.6844H47.6082V32.417H49.8757V30.1494H52.1433V32.417H54.4107V34.6844Z" fill="black"/>
<path d="M43.0672 38.4052C41.3766 41.4034 38.1642 43.4296 34.4773 43.4296C30.813 43.4296 27.6187 41.4288 25.9195 38.4624C25.0659 36.9739 24.6177 35.2876 24.6194 33.5717C24.6194 28.1276 29.0331 23.7141 34.4773 23.7141C38.118 23.7141 41.2955 25.69 43.0031 28.626L51.6193 23.6645C48.1946 17.7527 41.8007 13.7754 34.4773 13.7754C23.5437 13.7754 14.6807 22.6387 14.6807 33.5717C14.6807 37.1586 15.6349 40.5222 17.3026 43.4235C20.7187 49.3665 27.1308 53.3683 34.4773 53.3683C41.8373 53.3683 48.2594 49.3505 51.6706 43.3899L43.0672 38.4052Z" fill="black"/>
</svg>
