<svg width="68" height="68" viewBox="0 0 68 68" fill="none" xmlns="http://www.w3.org/2000/svg">
<path d="M64.5477 20.6423C64.5472 19.5158 64.3063 18.5203 63.819 17.6659C63.3404 16.8258 62.6236 16.1216 61.6622 15.5648C53.7261 10.9888 45.7823 6.42682 37.8487 1.84614C35.7099 0.611352 33.6361 0.656368 31.5131 1.90889C28.3543 3.7718 12.5392 12.8326 7.82647 15.5623C5.88565 16.6858 4.94124 18.4053 4.94078 20.6402C4.93774 29.8429 4.94078 39.0453 4.93774 48.2481C4.93821 49.35 5.16889 50.3261 5.63468 51.1676C6.11353 52.0332 6.84032 52.7567 7.82391 53.3261C12.5368 56.0557 28.354 65.1158 31.5122 66.9792C33.6361 68.2324 35.7099 68.2772 37.8494 67.042C45.7832 62.4611 53.7275 57.8993 61.6648 53.3233C62.6484 52.7542 63.3752 52.0302 63.854 51.1653C64.3191 50.3237 64.5502 49.3476 64.5507 48.2456C64.5507 48.2456 64.5507 29.8452 64.5477 20.6423Z" fill="#EAE7C7"/>
<path d="M34.8355 34.3545L5.63477 51.1677C6.11362 52.0332 6.8404 52.7567 7.824 53.3261C12.5369 56.0557 28.3542 65.1159 31.5123 66.9793C33.6362 68.2325 35.71 68.2773 37.8495 67.042C45.7833 62.4611 53.7276 57.8993 61.6649 53.3233C62.6485 52.7542 63.3753 52.0302 63.8542 51.1653L34.8355 34.3545Z" fill="#EAE7C7"/>
<path d="M26.1865 39.3347C27.8857 42.301 31.08 44.3018 34.7442 44.3018C38.4311 44.3018 41.6436 42.2756 43.3342 39.2775L34.8354 34.3545L26.1865 39.3347Z" fill="#EAE7C7"/>
<path d="M64.5477 20.6424C64.5472 19.5159 64.3063 18.5204 63.819 17.666L34.8354 34.3546L63.854 51.1655C64.3191 50.3239 64.5503 49.3478 64.5507 48.2457C64.5507 48.2457 64.5507 29.8453 64.5477 20.6424Z" fill="#EAE7C7"/>
<path d="M62.9519 35.5564H60.6843V37.8245H58.4162V35.5564H56.1488V33.2891H58.4162V31.0215H60.6843V33.2891H62.9519V35.5564ZM54.6775 35.5564H52.4102V37.8245H50.1426V35.5564H47.875V33.2891H50.1426V31.0215H52.4102V33.2891H54.6775V35.5564Z" fill="#08090A"/>
<path d="M43.3343 39.2773C41.6437 42.2754 38.4312 44.3016 34.7443 44.3016C31.0801 44.3016 27.8858 42.3009 26.1866 39.3345C25.333 37.846 24.8847 36.1597 24.8865 34.4438C24.8865 28.9997 29.3002 24.5862 34.7443 24.5862C38.3851 24.5862 41.5625 26.562 43.2701 29.4981L51.8864 24.5365C48.4617 18.6247 42.0677 14.6475 34.7443 14.6475C23.8108 14.6475 14.9478 23.5107 14.9478 34.4438C14.9478 38.0306 15.902 41.3942 17.5697 44.2956C20.9857 50.2386 27.3979 54.2404 34.7443 54.2404C42.1044 54.2404 48.5265 50.2225 51.9377 44.262L43.3343 39.2773Z" fill="#08090A"/>
</svg>
