<svg width="67" height="68" viewBox="0 0 67 68" fill="none" xmlns="http://www.w3.org/2000/svg">
<path d="M63.5477 20.6423C63.5472 19.5158 63.3063 18.5203 62.819 17.6659C62.3404 16.8258 61.6236 16.1216 60.6622 15.5648C52.7261 10.9888 44.7823 6.42682 36.8487 1.84614C34.7099 0.611352 32.6361 0.656368 30.5131 1.90889C27.3543 3.7718 11.5392 12.8326 6.82647 15.5623C4.88565 16.6858 3.94124 18.4053 3.94078 20.6402C3.93774 29.8429 3.94078 39.0453 3.93774 48.2481C3.93821 49.35 4.16889 50.3261 4.63468 51.1676C5.11353 52.0332 5.84032 52.7567 6.82391 53.3261C11.5368 56.0557 27.354 65.1158 30.5122 66.9792C32.6361 68.2324 34.7099 68.2772 36.8494 67.042C44.7832 62.4611 52.7275 57.8993 60.6648 53.3233C61.6484 52.7542 62.3752 52.0302 62.854 51.1653C63.3191 50.3237 63.5502 49.3476 63.5507 48.2456C63.5507 48.2456 63.5507 29.8452 63.5477 20.6423Z" fill="#5C8DBC"/>
<path d="M33.8355 34.3545L4.63477 51.1677C5.11362 52.0332 5.8404 52.7567 6.824 53.3261C11.5369 56.0557 27.3542 65.1159 30.5123 66.9793C32.6362 68.2325 34.71 68.2773 36.8495 67.042C44.7833 62.4611 52.7276 57.8993 60.6649 53.3233C61.6485 52.7542 62.3753 52.0302 62.8542 51.1653L33.8355 34.3545Z" fill="#1A4674"/>
<path d="M25.1865 39.3347C26.8857 42.301 30.08 44.3018 33.7442 44.3018C37.4311 44.3018 40.6436 42.2756 42.3342 39.2775L33.8354 34.3545L25.1865 39.3347Z" fill="#1A4674"/>
<path d="M63.5477 20.6424C63.5472 19.5159 63.3063 18.5204 62.819 17.666L33.8354 34.3546L62.854 51.1655C63.3191 50.3239 63.5503 49.3478 63.5507 48.2457C63.5507 48.2457 63.5507 29.8453 63.5477 20.6424Z" fill="#1B598E"/>
<path d="M61.9519 35.5564H59.6843V37.8245H57.4162V35.5564H55.1488V33.2891H57.4162V31.0215H59.6843V33.2891H61.9519V35.5564ZM53.6775 35.5564H51.4102V37.8245H49.1426V35.5564H46.875V33.2891H49.1426V31.0215H51.4102V33.2891H53.6775V35.5564Z" fill="white"/>
<path d="M42.3343 39.2773C40.6437 42.2754 37.4312 44.3016 33.7443 44.3016C30.0801 44.3016 26.8858 42.3009 25.1866 39.3345C24.333 37.846 23.8847 36.1597 23.8865 34.4438C23.8865 28.9997 28.3002 24.5862 33.7443 24.5862C37.3851 24.5862 40.5625 26.562 42.2701 29.4981L50.8864 24.5365C47.4617 18.6247 41.0677 14.6475 33.7443 14.6475C22.8108 14.6475 13.9478 23.5107 13.9478 34.4438C13.9478 38.0306 14.902 41.3942 16.5697 44.2956C19.9857 50.2386 26.3979 54.2404 33.7443 54.2404C41.1044 54.2404 47.5265 50.2225 50.9377 44.262L42.3343 39.2773Z" fill="white"/>
</svg>
