<svg width="68" height="68" viewBox="0 0 68 68" fill="none" xmlns="http://www.w3.org/2000/svg">
<path d="M64.2411 20.6424C64.2406 19.5158 63.9997 18.5203 63.5124 17.6659C63.0338 16.8258 62.3171 16.1216 61.3556 15.5649C53.4195 10.9889 45.4757 6.42683 37.5421 1.84615C35.4032 0.611351 33.3295 0.656367 31.2065 1.90889C28.0477 3.77181 12.2325 12.8326 7.51983 15.5623C5.57901 16.6858 4.6346 18.4053 4.63414 20.6403C4.6311 29.8429 4.63414 39.0453 4.6311 48.2482C4.6311 49.3501 4.86225 50.3262 5.32804 51.1677C5.80689 52.0333 6.53368 52.7568 7.51727 53.3262C12.2302 56.0558 28.0474 65.116 31.2055 66.9793C33.3295 68.2326 35.4032 68.2774 37.5428 67.0421C45.4766 62.4612 53.4209 57.8994 61.3582 53.3234C62.3418 52.7543 63.0686 52.0303 63.5474 51.1654C64.0125 50.3238 64.2441 49.3477 64.2441 48.2456C64.2441 48.2456 64.2441 29.8452 64.2411 20.6424Z" fill="#EAE7C7"/>
<path d="M34.5289 34.3545L5.32812 51.1677C5.80698 52.0332 6.53376 52.7568 7.51735 53.3261C12.2303 56.0558 28.0475 65.1159 31.2056 66.9793C33.3296 68.2325 35.4033 68.2773 37.5429 67.042C45.4767 62.4611 53.421 57.8993 61.3583 53.3233C62.3419 52.7542 63.0687 52.0302 63.5475 51.1653L34.5289 34.3545Z" fill="#EAE7C7"/>
<path d="M64.2411 20.6415C64.2406 19.5149 63.9997 18.5194 63.5124 17.665L34.5288 34.3537L63.5474 51.1645C64.0125 50.323 64.2436 49.3468 64.2441 48.2447C64.2441 48.2447 64.2441 29.8443 64.2411 20.6415Z" fill="#EAE7C7"/>
<path d="M51.7213 28.0693V31.212H54.864V28.0693H56.4353V31.212H59.578V32.7833H56.4353V35.926H59.578V37.4973H56.4353V40.64H54.864V37.4973H51.7213V40.64H50.15V37.4973H47.0073V35.926H50.15V32.7833H47.0073V31.212H50.15V28.0693H51.7213ZM54.864 32.7833H51.7213V35.926H54.864V32.7833Z" fill="#08090A"/>
<path d="M34.5929 12.2852C42.79 12.2852 49.9467 16.7369 53.78 23.354L53.7426 23.2903L44.0983 28.8435C42.1981 25.6262 38.7146 23.455 34.7188 23.4103L34.5929 23.4096C28.4993 23.4096 23.559 28.3496 23.559 34.4432C23.559 36.436 24.0903 38.3039 25.0142 39.9173C26.9161 43.2376 30.4915 45.4771 34.5929 45.4771C38.7196 45.4771 42.3153 43.2092 44.2076 39.8534L44.1616 39.9339L53.7914 45.5127C50.0002 52.0737 42.9415 56.5117 34.8397 56.6002L34.5929 56.6015C26.37 56.6015 19.1929 52.1224 15.3693 45.4703C13.5026 42.2229 12.4346 38.458 12.4346 34.4432C12.4346 22.2058 22.355 12.2852 34.5929 12.2852Z" fill="#08090A"/>
</svg>
