<svg width="68" height="68" viewBox="0 0 68 68" fill="none" xmlns="http://www.w3.org/2000/svg">
<path d="M63.9772 19.7703C63.9767 18.6437 63.7358 17.6482 63.2485 16.7938C62.7699 15.9537 62.0531 15.2495 61.0917 14.6928C53.1556 10.1168 45.2117 5.55475 37.2782 0.974073C35.1393 -0.260719 33.0656 -0.215703 30.9426 1.03682C27.7837 2.89973 11.9686 11.9606 7.25592 14.6902C5.31509 15.8137 4.37069 17.5332 4.37022 19.7682C4.36719 28.9708 4.37022 38.1732 4.36719 47.376C4.36719 48.4779 4.59833 49.454 5.06412 50.2956C5.54297 51.1611 6.26976 51.8846 7.25335 52.454C11.9663 55.1836 27.7835 64.2438 30.9416 66.1071C33.0656 67.3604 35.1393 67.4051 37.2789 66.1699C45.2127 61.589 53.157 57.0272 61.0943 52.4512C62.0779 51.8821 62.8047 51.1581 63.2835 50.2932C63.7486 49.4517 63.9802 48.4756 63.9802 47.3735C63.9802 47.3735 63.9802 28.9731 63.9772 19.7703Z" fill="#EAE7C7"/>
<path d="M34.264 33.4824L5.06323 50.2956C5.54208 51.1611 6.26887 51.8846 7.25246 52.454C11.9654 55.1836 27.7826 64.2438 30.9407 66.1071C33.0647 67.3604 35.1384 67.4051 37.278 66.1699C45.2118 61.589 53.1561 57.0272 61.0934 52.4512C62.077 51.8821 62.8037 51.1581 63.2826 50.2932L34.264 33.4824Z" fill="#EAE7C7"/>
<path d="M63.9791 19.7772C63.9787 18.6506 63.7377 17.6552 63.2505 16.8008L34.2668 33.4894L63.2855 50.3002C63.7505 49.4586 63.9817 48.4825 63.9822 47.3804C63.9822 47.3804 63.9822 28.9801 63.9791 19.7772Z" fill="#EAE7C7"/>
<path d="M51.4559 27.1826V30.3253H54.5986V27.1826H56.1699V30.3253H59.3126V31.8966H56.1699V35.0392H59.3126V36.6106H56.1699V39.7532H54.5986V36.6106H51.4559V39.7532H49.8846V36.6106H46.7419V35.0392H49.8846V31.8966H46.7419V30.3253H49.8846V27.1826H51.4559ZM54.5986 31.8966H51.4559V35.0392H54.5986V31.8966Z" fill="black"/>
<path d="M34.33 11.4121C42.5271 11.4121 49.6838 15.8639 53.5171 22.4809L53.4797 22.4172L43.8353 27.9704C41.9352 24.7531 38.4517 22.582 34.4558 22.5372L34.33 22.5365C28.2363 22.5365 23.2961 27.4765 23.2961 33.5701C23.2961 35.5629 23.8274 37.4308 24.7513 39.0442C26.6532 42.3645 30.2286 44.604 34.33 44.604C38.4567 44.604 42.0524 42.336 43.9447 38.9803L43.8987 39.0608L53.5285 44.6395C49.7373 51.2006 42.6786 55.6386 34.5768 55.727L34.33 55.7284C26.107 55.7284 18.93 51.2492 15.1063 44.5972C13.2397 41.3497 12.1716 37.5848 12.1716 33.5701C12.1716 21.3328 22.092 11.4121 34.33 11.4121Z" fill="black"/>
</svg>
