<svg width="67" height="68" viewBox="0 0 67 68" fill="none" xmlns="http://www.w3.org/2000/svg">
<path d="M63.2411 20.6424C63.2406 19.5158 62.9997 18.5203 62.5124 17.6659C62.0338 16.8258 61.3171 16.1216 60.3556 15.5649C52.4195 10.9889 44.4757 6.42683 36.5421 1.84615C34.4032 0.611351 32.3295 0.656367 30.2065 1.90889C27.0477 3.77181 11.2325 12.8326 6.51983 15.5623C4.57901 16.6858 3.6346 18.4053 3.63414 20.6403C3.6311 29.8429 3.63414 39.0453 3.6311 48.2482C3.6311 49.3501 3.86225 50.3262 4.32804 51.1677C4.80689 52.0333 5.53368 52.7568 6.51727 53.3262C11.2302 56.0558 27.0474 65.116 30.2055 66.9793C32.3295 68.2326 34.4032 68.2774 36.5428 67.0421C44.4766 62.4612 52.4209 57.8994 60.3582 53.3234C61.3418 52.7543 62.0686 52.0303 62.5474 51.1654C63.0125 50.3238 63.2441 49.3477 63.2441 48.2456C63.2441 48.2456 63.2441 29.8452 63.2411 20.6424Z" fill="#A179DC"/>
<path d="M33.5289 34.3545L4.32812 51.1677C4.80698 52.0332 5.53376 52.7568 6.51735 53.3261C11.2303 56.0558 27.0475 65.1159 30.2056 66.9793C32.3296 68.2325 34.4033 68.2773 36.5429 67.042C44.4767 62.4611 52.421 57.8993 60.3583 53.3233C61.3419 52.7542 62.0687 52.0302 62.5475 51.1653L33.5289 34.3545Z" fill="#280068"/>
<path d="M63.2411 20.6415C63.2406 19.5149 62.9997 18.5194 62.5124 17.665L33.5288 34.3537L62.5474 51.1645C63.0125 50.323 63.2436 49.3468 63.2441 48.2447C63.2441 48.2447 63.2441 29.8443 63.2411 20.6415Z" fill="#390091"/>
<path d="M50.7213 28.0693V31.212H53.864V28.0693H55.4353V31.212H58.578V32.7833H55.4353V35.926H58.578V37.4973H55.4353V40.64H53.864V37.4973H50.7213V40.64H49.15V37.4973H46.0073V35.926H49.15V32.7833H46.0073V31.212H49.15V28.0693H50.7213ZM53.864 32.7833H50.7213V35.926H53.864V32.7833Z" fill="white"/>
<path d="M33.5929 12.2852C41.79 12.2852 48.9467 16.7369 52.78 23.354L52.7426 23.2903L43.0983 28.8435C41.1981 25.6262 37.7146 23.455 33.7188 23.4103L33.5929 23.4096C27.4993 23.4096 22.559 28.3496 22.559 34.4432C22.559 36.436 23.0903 38.3039 24.0142 39.9173C25.9161 43.2376 29.4915 45.4771 33.5929 45.4771C37.7196 45.4771 41.3153 43.2092 43.2076 39.8534L43.1616 39.9339L52.7914 45.5127C49.0002 52.0737 41.9415 56.5117 33.8397 56.6002L33.5929 56.6015C25.37 56.6015 18.1929 52.1224 14.3693 45.4703C12.5026 42.2229 11.4346 38.458 11.4346 34.4432C11.4346 22.2058 21.355 12.2852 33.5929 12.2852Z" fill="white"/>
</svg>
