<svg width="68" height="68" viewBox="0 0 68 68" fill="none" xmlns="http://www.w3.org/2000/svg">
<path d="M0.937744 0.944336H54.8177C62.0637 0.944336 67.9377 6.81836 67.9377 14.0643V54.8243C67.9377 62.0703 62.0637 67.9443 54.8177 67.9443H14.0577C6.81177 67.9443 0.937744 62.0703 0.937744 54.8243V0.944336Z" fill="#EAE7C7"/>
<path d="M58.503 61.5866C56.8964 61.5866 55.6658 61.1166 54.8112 60.1766C53.9566 59.2365 53.5122 57.8863 53.478 56.1258H56.9391C56.9562 57.6812 57.5032 58.4588 58.5799 58.4588C59.1269 58.4588 59.5114 58.2879 59.7336 57.9461C59.9558 57.6042 60.0669 57.0573 60.0669 56.3053C60.0669 55.7071 59.9216 55.2114 59.6311 54.8183C59.3405 54.4252 58.8534 54.0748 58.1697 53.7671L56.8878 53.1518C55.7427 52.6049 54.9137 51.9554 54.401 51.2034C53.9053 50.4513 53.6575 49.4002 53.6575 48.0499C53.6575 46.5458 54.0933 45.3238 54.965 44.3837C55.8538 43.4437 57.0759 42.9736 58.6312 42.9736C60.1353 42.9736 61.2975 43.4351 62.118 44.3581C62.9555 45.281 63.3913 46.6056 63.4255 48.3319H60.0926C60.0755 47.597 59.9644 47.05 59.7593 46.6911C59.5713 46.3151 59.2038 46.1271 58.6569 46.1271C57.6826 46.1271 57.1955 46.7082 57.1955 47.8704C57.1955 48.4516 57.3151 48.913 57.5544 49.2549C57.8108 49.5796 58.2296 49.8702 58.8107 50.1266L60.0413 50.665C61.3061 51.2461 62.2205 51.9639 62.7845 52.8185C63.3486 53.6731 63.6306 54.8183 63.6306 56.254C63.6306 57.9632 63.1776 59.2792 62.2718 60.2022C61.3659 61.1252 60.1097 61.5866 58.503 61.5866Z" fill="#08090A"/>
<path d="M47.325 61.5866C45.7184 61.5866 44.4878 61.1166 43.6332 60.1766C42.7786 59.2365 42.3342 57.8863 42.3 56.1258H45.7611C45.7782 57.6812 46.3252 58.4588 47.402 58.4588C47.9489 58.4588 48.3335 58.2879 48.5557 57.9461C48.7779 57.6042 48.889 57.0573 48.889 56.3053C48.889 55.7071 48.7437 55.2114 48.4531 54.8183C48.1625 54.4252 47.6754 54.0748 46.9918 53.7671L45.7099 53.1518C44.5647 52.6049 43.7358 51.9554 43.223 51.2034C42.7273 50.4513 42.4795 49.4002 42.4795 48.0499C42.4795 46.5458 42.9154 45.3238 43.787 44.3837C44.6758 43.4437 45.8979 42.9736 47.4532 42.9736C48.9573 42.9736 50.1196 43.4351 50.94 44.3581C51.7775 45.281 52.2133 46.6056 52.2475 48.3319H48.9146C48.8975 47.597 48.7864 47.05 48.5813 46.6911C48.3933 46.3151 48.0258 46.1271 47.4789 46.1271C46.5046 46.1271 46.0175 46.7082 46.0175 47.8704C46.0175 48.4516 46.1372 48.913 46.3765 49.2549C46.6328 49.5796 47.0516 49.8702 47.6327 50.1266L48.8633 50.665C50.1281 51.2461 51.0425 51.9639 51.6066 52.8185C52.1706 53.6731 52.4526 54.8183 52.4526 56.254C52.4526 57.9632 51.9997 59.2792 51.0938 60.2022C50.1879 61.1252 48.9317 61.5866 47.325 61.5866Z" fill="#08090A"/>
<path d="M35.6854 61.5864C34.113 61.5864 32.8653 61.1591 31.9423 60.3045C31.0193 59.4499 30.5579 58.1766 30.5579 56.4845V48.1266C30.5579 46.4516 31.045 45.1782 32.0192 44.3065C33.0105 43.4349 34.3095 42.999 35.9162 42.999C37.4715 42.999 38.7021 43.4434 39.608 44.3322C40.5309 45.221 40.9924 46.5456 40.9924 48.306V48.9726H37.3262V48.3317C37.3262 47.648 37.1809 47.1438 36.8904 46.819C36.6169 46.4772 36.258 46.3063 35.8136 46.3063C35.2154 46.3063 34.7966 46.5114 34.5574 46.9216C34.3352 47.3318 34.2241 47.9386 34.2241 48.7419V55.9974C34.2241 57.5185 34.7539 58.2877 35.8136 58.3048C36.3093 58.3048 36.6853 58.1253 36.9417 57.7664C37.198 57.4074 37.3262 56.9032 37.3262 56.2537V55.7154H40.9924V56.2794C40.9924 57.4587 40.7617 58.4415 40.3002 59.2277C39.8387 60.0139 39.2063 60.6036 38.403 60.9967C37.6168 61.3898 36.7109 61.5864 35.6854 61.5864Z" fill="#08090A"/>
</svg>
