<svg width="67" height="68" viewBox="0 0 67 68" fill="none" xmlns="http://www.w3.org/2000/svg">
<path d="M-0.0622559 0.944336H53.8177C61.0637 0.944336 66.9377 6.81836 66.9377 14.0643V54.8243C66.9377 62.0703 61.0637 67.9443 53.8177 67.9443H13.0577C5.81177 67.9443 -0.0622559 62.0703 -0.0622559 54.8243V0.944336Z" fill="#663399"/>
<path d="M57.503 61.5866C55.8964 61.5866 54.6658 61.1166 53.8112 60.1766C52.9566 59.2365 52.5122 57.8863 52.478 56.1258H55.9391C55.9562 57.6812 56.5032 58.4588 57.5799 58.4588C58.1269 58.4588 58.5114 58.2879 58.7336 57.9461C58.9558 57.6042 59.0669 57.0573 59.0669 56.3053C59.0669 55.7071 58.9216 55.2114 58.6311 54.8183C58.3405 54.4252 57.8534 54.0748 57.1697 53.7671L55.8878 53.1518C54.7427 52.6049 53.9137 51.9554 53.401 51.2034C52.9053 50.4513 52.6575 49.4002 52.6575 48.0499C52.6575 46.5458 53.0933 45.3238 53.965 44.3837C54.8538 43.4437 56.0759 42.9736 57.6312 42.9736C59.1353 42.9736 60.2975 43.4351 61.118 44.3581C61.9555 45.281 62.3913 46.6056 62.4255 48.3319H59.0926C59.0755 47.597 58.9644 47.05 58.7593 46.6911C58.5713 46.3151 58.2038 46.1271 57.6569 46.1271C56.6826 46.1271 56.1955 46.7082 56.1955 47.8704C56.1955 48.4516 56.3151 48.913 56.5544 49.2549C56.8108 49.5796 57.2296 49.8702 57.8107 50.1266L59.0413 50.665C60.3061 51.2461 61.2205 51.9639 61.7845 52.8185C62.3486 53.6731 62.6306 54.8183 62.6306 56.254C62.6306 57.9632 62.1776 59.2792 61.2718 60.2022C60.3659 61.1252 59.1097 61.5866 57.503 61.5866Z" fill="white"/>
<path d="M46.325 61.5866C44.7184 61.5866 43.4878 61.1166 42.6332 60.1766C41.7786 59.2365 41.3342 57.8863 41.3 56.1258H44.7611C44.7782 57.6812 45.3252 58.4588 46.402 58.4588C46.9489 58.4588 47.3335 58.2879 47.5557 57.9461C47.7779 57.6042 47.889 57.0573 47.889 56.3053C47.889 55.7071 47.7437 55.2114 47.4531 54.8183C47.1625 54.4252 46.6754 54.0748 45.9918 53.7671L44.7099 53.1518C43.5647 52.6049 42.7358 51.9554 42.223 51.2034C41.7273 50.4513 41.4795 49.4002 41.4795 48.0499C41.4795 46.5458 41.9154 45.3238 42.787 44.3837C43.6758 43.4437 44.8979 42.9736 46.4532 42.9736C47.9573 42.9736 49.1196 43.4351 49.94 44.3581C50.7775 45.281 51.2133 46.6056 51.2475 48.3319H47.9146C47.8975 47.597 47.7864 47.05 47.5813 46.6911C47.3933 46.3151 47.0258 46.1271 46.4789 46.1271C45.5046 46.1271 45.0175 46.7082 45.0175 47.8704C45.0175 48.4516 45.1372 48.913 45.3765 49.2549C45.6328 49.5796 46.0516 49.8702 46.6327 50.1266L47.8633 50.665C49.1281 51.2461 50.0425 51.9639 50.6066 52.8185C51.1706 53.6731 51.4526 54.8183 51.4526 56.254C51.4526 57.9632 50.9997 59.2792 50.0938 60.2022C49.1879 61.1252 47.9317 61.5866 46.325 61.5866Z" fill="white"/>
<path d="M34.6854 61.5864C33.113 61.5864 31.8653 61.1591 30.9423 60.3045C30.0193 59.4499 29.5579 58.1766 29.5579 56.4845V48.1266C29.5579 46.4516 30.045 45.1782 31.0192 44.3065C32.0105 43.4349 33.3095 42.999 34.9162 42.999C36.4715 42.999 37.7021 43.4434 38.608 44.3322C39.5309 45.221 39.9924 46.5456 39.9924 48.306V48.9726H36.3262V48.3317C36.3262 47.648 36.1809 47.1438 35.8904 46.819C35.6169 46.4772 35.258 46.3063 34.8136 46.3063C34.2154 46.3063 33.7966 46.5114 33.5574 46.9216C33.3352 47.3318 33.2241 47.9386 33.2241 48.7419V55.9974C33.2241 57.5185 33.7539 58.2877 34.8136 58.3048C35.3093 58.3048 35.6853 58.1253 35.9417 57.7664C36.198 57.4074 36.3262 56.9032 36.3262 56.2537V55.7154H39.9924V56.2794C39.9924 57.4587 39.7617 58.4415 39.3002 59.2277C38.8387 60.0139 38.2063 60.6036 37.403 60.9967C36.6168 61.3898 35.7109 61.5864 34.6854 61.5864Z" fill="white"/>
</svg>
