<svg width="68" height="68" viewBox="0 0 68 68" fill="none" xmlns="http://www.w3.org/2000/svg">
<path d="M0.674072 0.0722656H54.5541C61.8 0.0722656 67.6741 5.94629 67.6741 13.1923V53.9523C67.6741 61.1982 61.8 67.0723 54.5541 67.0723H13.7941C6.54809 67.0723 0.674072 61.1982 0.674072 53.9523V0.0722656Z" fill="#663399"/>
<path d="M58.2396 60.7126C56.633 60.7126 55.4024 60.2426 54.5478 59.3025C53.6932 58.3625 53.2488 57.0122 53.2146 55.2518H56.6757C56.6928 56.8071 57.2397 57.5848 58.3165 57.5848C58.8634 57.5848 59.248 57.4139 59.4702 57.072C59.6924 56.7302 59.8035 56.1833 59.8035 55.4312C59.8035 54.833 59.6582 54.3374 59.3677 53.9442C59.0771 53.5511 58.59 53.2007 57.9063 52.8931L56.6244 52.2778C55.4793 51.7309 54.6503 51.0814 54.1376 50.3293C53.6419 49.5773 53.3941 48.5261 53.3941 47.1759C53.3941 45.6718 53.8299 44.4497 54.7016 43.5097C55.5904 42.5696 56.8124 42.0996 58.3678 42.0996C59.8719 42.0996 61.0341 42.5611 61.8545 43.484C62.692 44.407 63.1279 45.7316 63.162 47.4579H59.8291C59.812 46.7229 59.7009 46.176 59.4958 45.8171C59.3078 45.4411 58.9404 45.2531 58.3934 45.2531C57.4192 45.2531 56.9321 45.8342 56.9321 46.9964C56.9321 47.5775 57.0517 48.039 57.291 48.3809C57.5474 48.7056 57.9661 48.9962 58.5472 49.2525L59.7779 49.7909C61.0427 50.3721 61.9571 51.0899 62.5211 51.9445C63.0851 52.7991 63.3671 53.9442 63.3671 55.38C63.3671 57.0891 62.9142 58.4052 62.0083 59.3282C61.1025 60.2511 59.8462 60.7126 58.2396 60.7126Z" fill="black"/>
<path d="M47.0616 60.7126C45.455 60.7126 44.2244 60.2426 43.3698 59.3025C42.5152 58.3625 42.0708 57.0122 42.0366 55.2518H45.4977C45.5148 56.8071 46.0617 57.5848 47.1385 57.5848C47.6855 57.5848 48.07 57.4139 48.2922 57.072C48.5144 56.7302 48.6255 56.1833 48.6255 55.4312C48.6255 54.833 48.4802 54.3374 48.1897 53.9442C47.8991 53.5511 47.412 53.2007 46.7283 52.8931L45.4464 52.2778C44.3013 51.7309 43.4723 51.0814 42.9596 50.3293C42.4639 49.5773 42.2161 48.5261 42.2161 47.1759C42.2161 45.6718 42.6519 44.4497 43.5236 43.5097C44.4124 42.5696 45.6344 42.0996 47.1898 42.0996C48.6939 42.0996 49.8561 42.5611 50.6765 43.484C51.514 44.407 51.9499 45.7316 51.9841 47.4579H48.6512C48.6341 46.7229 48.523 46.176 48.3179 45.8171C48.1299 45.4411 47.7624 45.2531 47.2154 45.2531C46.2412 45.2531 45.7541 45.8342 45.7541 46.9964C45.7541 47.5775 45.8737 48.039 46.113 48.3809C46.3694 48.7056 46.7881 48.9962 47.3693 49.2525L48.5999 49.7909C49.8647 50.3721 50.7791 51.0899 51.3431 51.9445C51.9071 52.7991 52.1892 53.9442 52.1892 55.38C52.1892 57.0891 51.7362 58.4052 50.8304 59.3282C49.9245 60.2511 48.6682 60.7126 47.0616 60.7126Z" fill="black"/>
<path d="M35.4225 60.7153C33.85 60.7153 32.6023 60.288 31.6794 59.4334C30.7564 58.5788 30.2949 57.3055 30.2949 55.6134V47.2555C30.2949 45.5805 30.782 44.3071 31.7563 43.4355C32.7476 42.5638 34.0466 42.1279 35.6532 42.1279C37.2086 42.1279 38.4392 42.5723 39.3451 43.4611C40.268 44.3499 40.7295 45.6745 40.7295 47.4349V48.1015H37.0633V47.4606C37.0633 46.7769 36.918 46.2727 36.6274 45.948C36.354 45.6061 35.9951 45.4352 35.5507 45.4352C34.9524 45.4352 34.5337 45.6403 34.2944 46.0505C34.0722 46.4607 33.9611 47.0675 33.9611 47.8708V55.1263C33.9611 56.6475 34.491 57.4166 35.5507 57.4337C36.0463 57.4337 36.4223 57.2542 36.6787 56.8953C36.9351 56.5364 37.0633 56.0321 37.0633 55.3827V54.8443H40.7295V55.4083C40.7295 56.5876 40.4988 57.5704 40.0373 58.3566C39.5758 59.1429 38.9434 59.7325 38.1401 60.1256C37.3539 60.5188 36.448 60.7153 35.4225 60.7153Z" fill="black"/>
</svg>
