<svg width="67" height="68" viewBox="0 0 67 68" fill="none" xmlns="http://www.w3.org/2000/svg">
<path d="M24.0089 67.8146C30.1489 67.8146 35.1321 62.8315 35.1321 56.6915V45.5684H24.0089C17.8689 45.5684 12.8857 50.5515 12.8857 56.6915C12.8857 62.8315 17.8689 67.8146 24.0089 67.8146Z" fill="#0ACF83"/>
<path d="M12.8857 34.4435C12.8857 28.3035 17.8689 23.3203 24.0089 23.3203H35.1321V45.5666H24.0089C17.8689 45.5666 12.8857 40.5834 12.8857 34.4435Z" fill="#A259FF"/>
<path d="M12.8857 12.1974C12.8857 6.05739 17.8689 1.07422 24.0089 1.07422H35.1321V23.3205H24.0089C17.8689 23.3205 12.8857 18.3374 12.8857 12.1974Z" fill="#F24E1E"/>
<path d="M35.1321 1.07422H46.2553C52.3953 1.07422 57.3784 6.05739 57.3784 12.1974C57.3784 18.3374 52.3953 23.3205 46.2553 23.3205H35.1321V1.07422Z" fill="#FF7262"/>
<path d="M57.3784 34.4435C57.3784 40.5834 52.3953 45.5666 46.2553 45.5666C40.1153 45.5666 35.1321 40.5834 35.1321 34.4435C35.1321 28.3035 40.1153 23.3203 46.2553 23.3203C52.3953 23.3203 57.3784 28.3035 57.3784 34.4435Z" fill="#1ABCFE"/>
</svg>
