<svg width="68" height="68" viewBox="0 0 68 68" fill="none" xmlns="http://www.w3.org/2000/svg">
<path d="M25.0089 67.8146C31.1489 67.8146 36.1321 62.8315 36.1321 56.6915V45.5684H25.0089C18.8689 45.5684 13.8857 50.5515 13.8857 56.6915C13.8857 62.8315 18.8689 67.8146 25.0089 67.8146Z" fill="#EAE7C7"/>
<path d="M13.8857 34.4435C13.8857 28.3035 18.8689 23.3203 25.0089 23.3203H36.1321V45.5666H25.0089C18.8689 45.5666 13.8857 40.5834 13.8857 34.4435Z" fill="#EAE7C7"/>
<path d="M13.8857 12.1974C13.8857 6.05739 18.8689 1.07422 25.0089 1.07422H36.1321V23.3205H25.0089C18.8689 23.3205 13.8857 18.3374 13.8857 12.1974Z" fill="#EAE7C7"/>
<path d="M36.1321 1.07422H47.2553C53.3953 1.07422 58.3784 6.05739 58.3784 12.1974C58.3784 18.3374 53.3953 23.3205 47.2553 23.3205H36.1321V1.07422Z" fill="#EAE7C7"/>
<path d="M58.3784 34.4435C58.3784 40.5834 53.3953 45.5666 47.2553 45.5666C41.1153 45.5666 36.1321 40.5834 36.1321 34.4435C36.1321 28.3035 41.1153 23.3203 47.2553 23.3203C53.3953 23.3203 58.3784 28.3035 58.3784 34.4435Z" fill="#EAE7C7"/>
</svg>
