<svg width="68" height="68" viewBox="0 0 68 68" fill="none" xmlns="http://www.w3.org/2000/svg">
<path d="M24.747 66.9426C30.8869 66.9426 35.8701 61.9594 35.8701 55.8194V44.6963H24.747C18.607 44.6963 13.6238 49.6795 13.6238 55.8194C13.6238 61.9594 18.607 66.9426 24.747 66.9426Z" fill="#0ACF83"/>
<path d="M13.6238 33.5714C13.6238 27.4314 18.607 22.4482 24.747 22.4482H35.8701V44.6946H24.747C18.607 44.6946 13.6238 39.7114 13.6238 33.5714Z" fill="#A259FF"/>
<path d="M13.6238 11.3253C13.6238 5.18533 18.607 0.202148 24.747 0.202148H35.8701V22.4485H24.747C18.607 22.4485 13.6238 17.4653 13.6238 11.3253Z" fill="#F24E1E"/>
<path d="M35.8699 0.202148H46.9931C53.133 0.202148 58.1162 5.18533 58.1162 11.3253C58.1162 17.4653 53.133 22.4485 46.9931 22.4485H35.8699V0.202148Z" fill="#FF7262"/>
<path d="M58.1162 33.5714C58.1162 39.7114 53.133 44.6946 46.9931 44.6946C40.8531 44.6946 35.8699 39.7114 35.8699 33.5714C35.8699 27.4314 40.8531 22.4482 46.9931 22.4482C53.133 22.4482 58.1162 27.4314 58.1162 33.5714Z" fill="#1ABCFE"/>
</svg>
