<svg width="68" height="68" viewBox="0 0 68 68" fill="none" xmlns="http://www.w3.org/2000/svg">
<path d="M66.2752 31.5126L37.3845 2.78391C35.7217 1.12932 33.0232 1.12932 31.3583 2.78391L25.359 8.74987L32.9694 16.318C34.7379 15.7237 36.766 16.1224 38.1757 17.5243C39.5922 18.9352 39.9902 20.9692 39.3781 22.7335L46.7125 30.0274C48.4869 29.4195 50.5344 29.8127 51.9516 31.2244C53.9323 33.1934 53.9323 36.3846 51.9516 38.3548C49.9703 40.3253 46.7613 40.3253 44.7791 38.3548C43.2892 36.8717 42.9211 34.6958 43.6754 32.8705L36.8355 26.0687L36.8347 43.9683C37.3305 44.2122 37.7834 44.5342 38.1757 44.922C40.1564 46.8909 40.1564 50.0824 38.1757 52.0541C36.1945 54.0236 32.9839 54.0236 31.0055 52.0541C29.0248 50.0824 29.0248 46.8912 31.0055 44.9222C31.4802 44.45 32.0443 44.076 32.6652 43.8218V25.7553C32.0434 25.5029 31.4789 25.1287 31.0055 24.6549C29.5048 23.1646 29.1439 20.9748 29.9129 19.1424L22.4108 11.6812L2.60099 31.3797C0.936388 33.0358 0.936388 35.7196 2.60099 37.3744L31.4922 66.1036C33.1555 67.7584 35.8535 67.7584 37.5189 66.1036L66.2749 37.5078C67.939 35.8525 67.939 33.1671 66.2749 31.5126" fill="#EAE7C7"/>
</svg>
