<svg width="68" height="68" viewBox="0 0 68 68" fill="none" xmlns="http://www.w3.org/2000/svg">
<path d="M66.011 30.6376L37.1203 1.90891C35.4575 0.254322 32.759 0.254322 31.0942 1.90891L25.0949 7.87488L32.7052 15.443C34.4738 14.8487 36.5018 15.2474 37.9115 16.6493C39.328 18.0602 39.7261 20.0942 39.114 21.8585L46.4483 29.1524C48.2228 28.5445 50.2702 28.9377 51.6874 30.3494C53.6681 32.3184 53.6681 35.5096 51.6874 37.4798C49.7062 39.4503 46.4972 39.4503 44.5149 37.4798C43.025 35.9967 42.6569 33.8208 43.4112 31.9955L36.5713 25.1937L36.5705 43.0934C37.0664 43.3372 37.5192 43.6592 37.9115 44.047C39.8923 46.0159 39.8923 49.2074 37.9115 51.1792C35.9303 53.1486 32.7197 53.1486 30.7413 51.1792C28.7606 49.2074 28.7606 46.0162 30.7413 44.0473C31.216 43.575 31.7801 43.201 32.401 42.9469V24.8803C31.7792 24.6279 31.2148 24.2537 30.7413 23.7799C29.2406 22.2896 28.8798 20.0998 29.6487 18.2674L22.1466 10.8062L2.33683 30.5047C0.672228 32.1608 0.672228 34.8446 2.33683 36.4994L31.228 65.2286C32.8914 66.8835 35.5894 66.8835 37.2547 65.2286L66.0108 36.6329C67.6749 34.9775 67.6749 32.2922 66.0108 30.6376" fill="#EAE7C7"/>
</svg>
