<svg width="67" height="68" viewBox="0 0 67 68" fill="none" xmlns="http://www.w3.org/2000/svg">
<path d="M65.2752 31.5126L36.3845 2.78391C34.7217 1.12932 32.0232 1.12932 30.3583 2.78391L24.359 8.74987L31.9694 16.318C33.7379 15.7237 35.766 16.1224 37.1757 17.5243C38.5922 18.9352 38.9902 20.9692 38.3781 22.7335L45.7125 30.0274C47.4869 29.4195 49.5344 29.8127 50.9516 31.2244C52.9323 33.1934 52.9323 36.3846 50.9516 38.3548C48.9703 40.3253 45.7613 40.3253 43.7791 38.3548C42.2892 36.8717 41.9211 34.6958 42.6754 32.8705L35.8355 26.0687L35.8347 43.9683C36.3305 44.2122 36.7834 44.5342 37.1757 44.922C39.1564 46.8909 39.1564 50.0824 37.1757 52.0541C35.1945 54.0236 31.9839 54.0236 30.0055 52.0541C28.0248 50.0824 28.0248 46.8912 30.0055 44.9222C30.4802 44.45 31.0443 44.076 31.6652 43.8218V25.7553C31.0434 25.5029 30.4789 25.1287 30.0055 24.6549C28.5048 23.1646 28.1439 20.9748 28.9129 19.1424L21.4108 11.6812L1.60099 31.3797C-0.063612 33.0358 -0.063612 35.7196 1.60099 37.3744L30.4922 66.1036C32.1555 67.7584 34.8535 67.7584 36.5189 66.1036L65.2749 37.5078C66.939 35.8525 66.939 33.1671 65.2749 31.5126" fill="#DE4C36"/>
</svg>
