<svg width="68" height="68" viewBox="0 0 68 68" fill="none" xmlns="http://www.w3.org/2000/svg">
<path d="M34.6234 1.91797C16.2266 1.91797 1.30884 16.7503 1.30884 35.0474C1.30884 49.6851 10.8545 62.1034 24.0914 66.4841C25.7563 66.7907 26.3677 65.7654 26.3677 64.8903C26.3677 64.1004 26.3366 61.4905 26.3225 58.7222C17.0541 60.7263 15.0984 54.8134 15.0984 54.8134C13.583 50.984 11.3995 49.966 11.3995 49.966C8.37699 47.9097 11.6273 47.9518 11.6273 47.9518C14.9728 48.1857 16.7343 51.366 16.7343 51.366C19.7056 56.4308 24.5278 54.9664 26.4288 54.1202C26.7278 51.9787 27.5913 50.5174 28.5439 49.6901C21.1445 48.8521 13.3656 46.0114 13.3656 33.3172C13.3656 29.7004 14.6671 26.7449 16.7983 24.4249C16.4524 23.5903 15.3122 20.2208 17.121 15.6575C17.121 15.6575 19.9185 14.767 26.2849 19.0534C28.9421 18.3191 31.7921 17.9512 34.6234 17.9387C37.4546 17.9512 40.3068 18.3191 42.9692 19.0534C49.328 14.767 52.1216 15.6575 52.1216 15.6575C53.9349 20.2208 52.7941 23.5903 52.4482 24.4249C54.5842 26.7449 55.8767 29.7002 55.8767 33.3172C55.8767 46.0416 48.0832 48.8436 40.665 49.6636C41.8598 50.6917 42.9245 52.708 42.9245 55.7987C42.9245 60.2313 42.8858 63.799 42.8858 64.8903C42.8858 65.7719 43.4855 66.805 45.1744 66.4797C58.4041 62.094 67.9377 49.6802 67.9377 35.0474C67.9377 16.7503 53.022 1.91797 34.6234 1.91797Z" fill="#EAE7C7"/>
<path d="M13.7863 49.1116C13.7132 49.2761 13.4524 49.3254 13.2154 49.2127C12.9737 49.1046 12.8379 48.8801 12.9163 48.7148C12.9881 48.5454 13.2489 48.4981 13.49 48.6119C13.7322 48.7198 13.8702 48.9463 13.7863 49.1116ZM15.4251 50.5656C15.2662 50.7121 14.9556 50.6441 14.7447 50.4126C14.5268 50.1816 14.486 49.8729 14.6473 49.724C14.8111 49.5777 15.1123 49.6461 15.3308 49.8773C15.5487 50.1109 15.591 50.4178 15.4248 50.5659L15.4251 50.5656ZM16.5494 52.426C16.3451 52.5671 16.0111 52.4348 15.805 52.1402C15.6009 51.8458 15.6009 51.4924 15.8094 51.3508C16.0164 51.2092 16.3451 51.3365 16.5541 51.6288C16.7579 51.9284 16.7579 52.2818 16.5491 52.4262L16.5494 52.426ZM18.4505 54.5807C18.2678 54.7808 17.879 54.7273 17.5942 54.4539C17.3032 54.1868 17.2219 53.8077 17.4051 53.6074C17.5898 53.4068 17.9809 53.4632 18.2678 53.7342C18.5571 54.0008 18.6454 54.3827 18.4507 54.5807H18.4505ZM20.9075 55.3083C20.8273 55.5676 20.4526 55.6855 20.0754 55.5754C19.6986 55.4618 19.4519 55.1578 19.528 54.8956C19.6064 54.6345 19.9826 54.5116 20.3628 54.6296C20.739 54.7426 20.9862 55.0443 20.9078 55.3083H20.9075ZM23.7043 55.6167C23.7137 55.89 23.3936 56.1166 22.9975 56.1215C22.5991 56.1301 22.2769 55.909 22.2727 55.6403C22.2727 55.3644 22.5855 55.1399 22.9837 55.1334C23.3798 55.1256 23.7043 55.3451 23.7043 55.6167ZM26.4514 55.512C26.4989 55.7785 26.2236 56.0524 25.8303 56.1252C25.4436 56.1953 25.0857 56.0308 25.0363 55.7666C24.9882 55.4932 25.2688 55.2196 25.6547 55.1487C26.0488 55.0806 26.4012 55.241 26.4514 55.512Z" fill="#EAE7C7"/>
</svg>
