<svg width="67" height="68" viewBox="0 0 67 68" fill="none" xmlns="http://www.w3.org/2000/svg">
<path d="M33.6234 1.91797C15.2266 1.91797 0.308838 16.7503 0.308838 35.0474C0.308838 49.6851 9.85445 62.1034 23.0914 66.4841C24.7563 66.7907 25.3677 65.7654 25.3677 64.8903C25.3677 64.1004 25.3366 61.4905 25.3225 58.7222C16.0541 60.7263 14.0984 54.8134 14.0984 54.8134C12.583 50.984 10.3995 49.966 10.3995 49.966C7.37699 47.9097 10.6273 47.9518 10.6273 47.9518C13.9728 48.1857 15.7343 51.366 15.7343 51.366C18.7056 56.4308 23.5278 54.9664 25.4288 54.1202C25.7278 51.9787 26.5913 50.5174 27.5439 49.6901C20.1445 48.8521 12.3656 46.0114 12.3656 33.3172C12.3656 29.7004 13.6671 26.7449 15.7983 24.4249C15.4524 23.5903 14.3122 20.2208 16.121 15.6575C16.121 15.6575 18.9185 14.767 25.2849 19.0534C27.9421 18.3191 30.7921 17.9512 33.6234 17.9387C36.4546 17.9512 39.3068 18.3191 41.9692 19.0534C48.328 14.767 51.1216 15.6575 51.1216 15.6575C52.9349 20.2208 51.7941 23.5903 51.4482 24.4249C53.5842 26.7449 54.8767 29.7002 54.8767 33.3172C54.8767 46.0416 47.0832 48.8436 39.665 49.6636C40.8598 50.6917 41.9245 52.708 41.9245 55.7987C41.9245 60.2313 41.8858 63.799 41.8858 64.8903C41.8858 65.7719 42.4855 66.805 44.1744 66.4797C57.4041 62.094 66.9377 49.6802 66.9377 35.0474C66.9377 16.7503 52.022 1.91797 33.6234 1.91797Z" fill="white"/>
<path d="M12.7863 49.1116C12.7132 49.2761 12.4524 49.3254 12.2154 49.2127C11.9737 49.1046 11.8379 48.8801 11.9163 48.7148C11.9881 48.5454 12.2489 48.4981 12.49 48.6119C12.7322 48.7198 12.8702 48.9463 12.7863 49.1116ZM14.4251 50.5656C14.2662 50.7121 13.9556 50.6441 13.7447 50.4126C13.5268 50.1816 13.486 49.8729 13.6473 49.724C13.8111 49.5777 14.1123 49.6461 14.3308 49.8773C14.5487 50.1109 14.591 50.4178 14.4248 50.5659L14.4251 50.5656ZM15.5494 52.426C15.3451 52.5671 15.0111 52.4348 14.805 52.1402C14.6009 51.8458 14.6009 51.4924 14.8094 51.3508C15.0164 51.2092 15.3451 51.3365 15.5541 51.6288C15.7579 51.9284 15.7579 52.2818 15.5491 52.4262L15.5494 52.426ZM17.4505 54.5807C17.2678 54.7808 16.879 54.7273 16.5942 54.4539C16.3032 54.1868 16.2219 53.8077 16.4051 53.6074C16.5898 53.4068 16.9809 53.4632 17.2678 53.7342C17.5571 54.0008 17.6454 54.3827 17.4507 54.5807H17.4505ZM19.9075 55.3083C19.8273 55.5676 19.4526 55.6855 19.0754 55.5754C18.6986 55.4618 18.4519 55.1578 18.528 54.8956C18.6064 54.6345 18.9826 54.5116 19.3628 54.6296C19.739 54.7426 19.9862 55.0443 19.9078 55.3083H19.9075ZM22.7043 55.6167C22.7137 55.89 22.3936 56.1166 21.9975 56.1215C21.5991 56.1301 21.2769 55.909 21.2727 55.6403C21.2727 55.3644 21.5855 55.1399 21.9837 55.1334C22.3798 55.1256 22.7043 55.3451 22.7043 55.6167ZM25.4514 55.512C25.4989 55.7785 25.2236 56.0524 24.8303 56.1252C24.4436 56.1953 24.0857 56.0308 24.0363 55.7666C23.9882 55.4932 24.2688 55.2196 24.6547 55.1487C25.0488 55.0806 25.4012 55.241 25.4514 55.512Z" fill="white"/>
</svg>
