<svg width="68" height="68" viewBox="0 0 68 68" fill="none" xmlns="http://www.w3.org/2000/svg">
<path d="M34.3597 1.0498C15.963 1.0498 1.04517 15.8821 1.04517 34.1793C1.04517 48.817 10.5908 61.2352 23.8278 65.616C25.4927 65.9225 26.104 64.8973 26.104 64.0222C26.104 63.2323 26.073 60.6223 26.0588 57.8541C16.7904 59.8581 14.8348 53.9452 14.8348 53.9452C13.3193 50.1159 11.1358 49.0979 11.1358 49.0979C8.11332 47.0416 11.3637 47.0837 11.3637 47.0837C14.7091 47.3175 16.4706 50.4978 16.4706 50.4978C19.4419 55.5627 24.2641 54.0983 26.1652 53.252C26.4641 51.1105 27.3276 49.6492 28.2803 48.8219C20.8808 47.984 13.102 45.1433 13.102 32.4491C13.102 28.8323 14.4034 25.8767 16.5347 23.5567C16.1887 22.7221 15.0485 19.3527 16.8573 14.7893C16.8573 14.7893 19.6549 13.8989 26.0212 18.1852C28.6784 17.451 31.5285 17.0831 34.3597 17.0706C37.191 17.0831 40.0431 17.451 42.7055 18.1852C49.0643 13.8989 51.8579 14.7893 51.8579 14.7893C53.6712 19.3527 52.5305 22.7221 52.1845 23.5567C54.3205 25.8767 55.6131 28.832 55.6131 32.4491C55.6131 45.1734 47.8196 47.9754 40.4013 48.7954C41.5961 49.8236 42.6609 51.8398 42.6609 54.9305C42.6609 59.3632 42.6222 62.9309 42.6222 64.0222C42.6222 64.9038 43.2218 65.9368 44.9108 65.6115C58.1404 61.2259 67.674 48.812 67.674 34.1793C67.674 15.8821 52.7583 1.0498 34.3597 1.0498Z" fill="white"/>
<path d="M13.5231 48.2454C13.45 48.4099 13.1892 48.4592 12.9522 48.3465C12.7106 48.2384 12.5747 48.0139 12.6531 47.8486C12.7249 47.6792 12.9857 47.6319 13.2269 47.7457C13.4691 47.8536 13.607 48.0801 13.5231 48.2454ZM15.1619 49.6994C15.003 49.8459 14.6924 49.7779 14.4815 49.5463C14.2636 49.3154 14.2229 49.0067 14.3841 48.8578C14.5479 48.7115 14.8491 48.7798 15.0676 49.0111C15.2855 49.2447 15.3278 49.5515 15.1616 49.6996L15.1619 49.6994ZM16.2862 51.5598C16.0819 51.7008 15.748 51.5686 15.5418 51.2739C15.3377 50.9796 15.3377 50.6262 15.5462 50.4846C15.7532 50.343 16.0819 50.4703 16.2909 50.7626C16.4947 51.0622 16.4947 51.4156 16.2859 51.56L16.2862 51.5598ZM18.1873 53.7145C18.0046 53.9146 17.6158 53.8611 17.3311 53.5877C17.04 53.3206 16.9587 52.9415 17.1419 52.7412C17.3266 52.5406 17.7177 52.597 18.0046 52.868C18.2939 53.1346 18.3822 53.5165 18.1875 53.7145H18.1873ZM20.6444 54.442C20.5641 54.7014 20.1895 54.8193 19.8122 54.7091C19.4354 54.5956 19.1888 54.2916 19.2648 54.0294C19.3432 53.7683 19.7194 53.6454 20.0996 53.7634C20.4758 53.8764 20.723 54.1781 20.6446 54.442H20.6444ZM23.4411 54.7505C23.4505 55.0238 23.1304 55.2504 22.7343 55.2553C22.3359 55.2639 22.0137 55.0428 22.0095 54.7741C22.0095 54.4982 22.3223 54.2737 22.7205 54.2672C23.1166 54.2594 23.4411 54.4789 23.4411 54.7505ZM26.1882 54.6457C26.2358 54.9123 25.9604 55.1862 25.5671 55.2589C25.1805 55.3291 24.8225 55.1646 24.7731 54.9004C24.725 54.627 25.0057 54.3534 25.3916 54.2825C25.7856 54.2144 26.138 54.3747 26.1882 54.6457Z" fill="white"/>
</svg>
