<svg width="68" height="68" viewBox="0 0 68 68" fill="none" xmlns="http://www.w3.org/2000/svg">
<path d="M9.98898 60.4494L4.68359 0.900391H63.0107L57.7053 60.4173L33.7989 67.041" fill="#EAE7C7"/>
<path d="M33.8477 61.9906V5.80176H57.6898L53.14 56.6048" fill="#EAE7C7"/>
<path d="M15.5222 13.0703H33.8499L42.8185 17.0588L33.8499 20.3692H23.5285L24.2038 27.845H33.8499L39.9125 31.5672L33.8499 35.1279H17.5158L15.5222 13.0703ZM17.8373 38.7934H25.1684L25.6828 44.6293L33.8499 46.8158V54.4363L18.8662 50.2563" fill="black"/>
<path d="M52.111 13.0703H33.8154V20.3692H51.4357L52.111 13.0703ZM50.7766 27.845H33.8154V35.144H42.8185L41.9664 44.6294L33.8154 46.8158L31.6053 50.2563L33.8154 54.4042L48.767 50.2563" fill="black"/>
</svg>
