<svg width="68" height="68" viewBox="0 0 68 68" fill="none" xmlns="http://www.w3.org/2000/svg">
<path d="M67.312 1.31641H0.312012V67.9442H67.312V1.31641Z" fill="#EAE7C7"/>
<path d="M45.3189 53.3697C46.6685 55.561 48.4243 57.1717 51.5297 57.1717C54.1384 57.1717 55.8049 55.8751 55.8049 54.0836C55.8049 51.9367 54.0927 51.1763 51.2213 49.9273L49.6473 49.2557C45.1041 47.3309 42.0859 44.9196 42.0859 39.8221C42.0859 35.1264 45.6837 31.5518 51.3064 31.5518C55.3093 31.5518 58.1872 32.9372 60.261 36.5647L55.3583 39.6952C54.2788 37.7704 53.1143 37.0121 51.3064 37.0121C49.4623 37.0121 48.2935 38.1754 48.2935 39.6952C48.2935 41.5734 49.4633 42.3338 52.1646 43.4972L53.7386 44.1677C59.0879 46.4489 62.1082 48.7745 62.1082 54.0032C62.1082 59.6401 57.6554 62.7283 51.6754 62.7283C45.8283 62.7283 42.0508 59.9574 40.2024 56.3257L45.3189 53.3697ZM23.0781 53.9123C24.0671 55.6573 24.9669 57.1326 27.13 57.1326C29.1985 57.1326 30.5034 56.3278 30.5034 53.1984V31.9092H36.7993V53.283C36.7993 59.766 32.9771 62.7166 27.398 62.7166C22.357 62.7166 19.4378 60.1224 17.9531 56.9978L23.0781 53.9123Z" fill="#08090A"/>
</svg>
