<svg width="68" height="68" viewBox="0 0 68 68" fill="none" xmlns="http://www.w3.org/2000/svg">
<path d="M67.1733 0.444336H0.17334V67.0718H67.1733V0.444336Z" fill="#F7DF1E"/>
<path d="M45.1778 52.4975C46.5274 54.6888 48.2832 56.2995 51.3886 56.2995C53.9973 56.2995 55.6638 55.0029 55.6638 53.2114C55.6638 51.0645 53.9516 50.3041 51.0802 49.0551L49.5062 48.3836C44.963 46.4588 41.9448 44.0475 41.9448 38.95C41.9448 34.2543 45.5426 30.6797 51.1652 30.6797C55.1682 30.6797 58.046 32.0651 60.1199 35.6926L55.2171 38.823C54.1377 36.8983 52.9732 36.14 51.1652 36.14C49.3212 36.14 48.1524 37.3033 48.1524 38.823C48.1524 40.7013 49.3222 41.4617 52.0235 42.625L53.5975 43.2955C58.9468 45.5767 61.9671 47.9024 61.9671 53.131C61.9671 58.7679 57.5143 61.856 51.5343 61.856C45.6872 61.856 41.9097 59.0852 40.0613 55.4535L45.1778 52.4975ZM22.937 53.0401C23.926 54.7851 24.8257 56.2604 26.9889 56.2604C29.0574 56.2604 30.3623 55.4556 30.3623 52.3262V31.0371H36.6582V52.4108C36.6582 58.8938 32.836 61.8444 27.2569 61.8444C22.2159 61.8444 19.2966 59.2502 17.812 56.1256L22.937 53.0401Z" fill="black"/>
</svg>
