<svg width="67" height="68" viewBox="0 0 67 68" fill="none" xmlns="http://www.w3.org/2000/svg">
<path d="M66.9377 1.31641H-0.0622559V67.9442H66.9377V1.31641Z" fill="#F7DF1E"/>
<path d="M44.9444 53.3697C46.294 55.561 48.0498 57.1717 51.1552 57.1717C53.7639 57.1717 55.4304 55.8751 55.4304 54.0836C55.4304 51.9367 53.7182 51.1763 50.8468 49.9273L49.2728 49.2557C44.7296 47.3309 41.7114 44.9196 41.7114 39.8221C41.7114 35.1264 45.3092 31.5518 50.9318 31.5518C54.9348 31.5518 57.8126 32.9372 59.8865 36.5647L54.9838 39.6952C53.9043 37.7704 52.7398 37.0121 50.9318 37.0121C49.0878 37.0121 47.919 38.1754 47.919 39.6952C47.919 41.5734 49.0888 42.3338 51.7901 43.4972L53.3641 44.1677C58.7134 46.4489 61.7337 48.7745 61.7337 54.0032C61.7337 59.6401 57.2809 62.7283 51.3009 62.7283C45.4538 62.7283 41.6763 59.9574 39.8279 56.3257L44.9444 53.3697ZM22.7036 53.9123C23.6926 55.6573 24.5923 57.1326 26.7555 57.1326C28.824 57.1326 30.1289 56.3278 30.1289 53.1984V31.9092H36.4248V53.283C36.4248 59.766 32.6026 62.7166 27.0235 62.7166C21.9825 62.7166 19.0632 60.1224 17.5786 56.9978L22.7036 53.9123Z" fill="black"/>
</svg>
