<svg width="67" height="68" viewBox="0 0 67 68" fill="none" xmlns="http://www.w3.org/2000/svg">
<path d="M33.2026 2.1416C16.6239 2.1416 17.659 9.29118 17.659 9.29118L17.6774 16.6984H33.4982V18.9222H11.3937C11.3937 18.9222 0.784912 17.7257 0.784912 34.3606C0.784912 50.996 10.0445 50.406 10.0445 50.406H15.5706V42.6866C15.5706 42.6866 15.2726 33.4785 24.6823 33.4785H40.3737C40.3737 33.4785 49.1896 33.6201 49.1896 25.0055V10.7618C49.1896 10.7618 50.5286 2.1416 33.2026 2.1416ZM24.479 7.12279C24.8529 7.12245 25.2231 7.19543 25.5686 7.33755C25.9141 7.47967 26.228 7.68814 26.4923 7.95103C26.7567 8.21391 26.9663 8.52606 27.1092 8.8696C27.2521 9.21314 27.3255 9.58134 27.3252 9.95312C27.3255 10.3249 27.2521 10.6931 27.1092 11.0366C26.9663 11.3802 26.7567 11.6923 26.4923 11.9552C26.228 12.2181 25.9141 12.4266 25.5686 12.5687C25.2231 12.7108 24.8529 12.7838 24.479 12.7835C24.1052 12.7838 23.7349 12.7108 23.3895 12.5687C23.044 12.4266 22.7301 12.2181 22.4657 11.9552C22.2014 11.6923 21.9918 11.3802 21.8488 11.0366C21.7059 10.6931 21.6325 10.3249 21.6329 9.95312C21.6325 9.58134 21.7059 9.21314 21.8488 8.8696C21.9918 8.52606 22.2014 8.21391 22.4657 7.95103C22.7301 7.68814 23.044 7.47967 23.3895 7.33755C23.7349 7.19543 24.1052 7.12245 24.479 7.12279Z" fill="url(#paint0_linear_284_588)"/>
<path d="M33.6731 66.7476C50.2519 66.7476 49.2167 59.598 49.2167 59.598L49.1983 52.191H33.3773V49.9672H55.4818C55.4818 49.9672 66.0906 51.1637 66.0906 34.5283C66.0906 17.8931 56.831 18.4831 56.831 18.4831H51.3049V26.2023C51.3049 26.2023 51.6028 35.4104 42.1932 35.4104H26.5017C26.5017 35.4104 17.6858 35.2688 17.6858 43.8836V58.1276C17.6858 58.1276 16.3472 66.7476 33.6729 66.7476H33.6731ZM42.3967 61.7669C42.0229 61.7672 41.6526 61.6943 41.3071 61.5521C40.9617 61.41 40.6478 61.2015 40.3834 60.9387C40.1191 60.6758 39.9094 60.3636 39.7665 60.0201C39.6236 59.6765 39.5502 59.3083 39.5506 58.9366C39.5502 58.5648 39.6236 58.1965 39.7664 57.853C39.9093 57.5094 40.119 57.1972 40.3833 56.9343C40.6477 56.6714 40.9616 56.4629 41.3071 56.3208C41.6526 56.1786 42.0228 56.1056 42.3967 56.106C42.7706 56.1056 43.1408 56.1786 43.4863 56.3207C43.8317 56.4628 44.1456 56.6713 44.41 56.9342C44.6743 57.1971 44.884 57.5092 45.0269 57.8528C45.1698 58.1963 45.2432 58.5645 45.2429 58.9363C45.2432 59.3081 45.1698 59.6763 45.0269 60.0198C44.884 60.3634 44.6743 60.6755 44.41 60.9384C44.1456 61.2013 43.8317 61.4098 43.4863 61.5519C43.1408 61.694 42.7706 61.767 42.3967 61.7666V61.7669Z" fill="url(#paint1_linear_284_588)"/>
<defs>
<linearGradient id="paint0_linear_284_588" x1="7.06079" y1="7.95247" x2="39.2459" y2="39.9945" gradientUnits="userSpaceOnUse">
<stop stop-color="#387EB8"/>
<stop offset="1" stop-color="#366994"/>
</linearGradient>
<linearGradient id="paint1_linear_284_588" x1="26.9253" y1="28.4134" x2="61.4974" y2="61.278" gradientUnits="userSpaceOnUse">
<stop stop-color="#FFE052"/>
<stop offset="1" stop-color="#FFC331"/>
</linearGradient>
</defs>
</svg>
