<svg width="68" height="68" viewBox="0 0 68 68" fill="none" xmlns="http://www.w3.org/2000/svg">
<path d="M34.2026 2.1416C17.6239 2.1416 18.659 9.29118 18.659 9.29118L18.6774 16.6984H34.4982V18.9222H12.3937C12.3937 18.9222 1.78491 17.7257 1.78491 34.3606C1.78491 50.996 11.0445 50.406 11.0445 50.406H16.5706V42.6866C16.5706 42.6866 16.2726 33.4785 25.6823 33.4785H41.3737C41.3737 33.4785 50.1896 33.6201 50.1896 25.0055V10.7618C50.1896 10.7618 51.5286 2.1416 34.2026 2.1416ZM25.479 7.12279C25.8529 7.12245 26.2231 7.19543 26.5686 7.33755C26.9141 7.47967 27.228 7.68814 27.4923 7.95103C27.7567 8.21391 27.9663 8.52606 28.1092 8.8696C28.2521 9.21314 28.3255 9.58134 28.3252 9.95312C28.3255 10.3249 28.2521 10.6931 28.1092 11.0366C27.9663 11.3802 27.7567 11.6923 27.4923 11.9552C27.228 12.2181 26.9141 12.4266 26.5686 12.5687C26.2231 12.7108 25.8529 12.7838 25.479 12.7835C25.1052 12.7838 24.7349 12.7108 24.3895 12.5687C24.044 12.4266 23.7301 12.2181 23.4657 11.9552C23.2014 11.6923 22.9918 11.3802 22.8488 11.0366C22.7059 10.6931 22.6325 10.3249 22.6329 9.95312C22.6325 9.58134 22.7059 9.21314 22.8488 8.8696C22.9918 8.52606 23.2014 8.21391 23.4657 7.95103C23.7301 7.68814 24.044 7.47967 24.3895 7.33755C24.7349 7.19543 25.1052 7.12245 25.479 7.12279Z" fill="#EAE7C7"/>
<path d="M34.6731 66.7476C51.2519 66.7476 50.2167 59.598 50.2167 59.598L50.1983 52.191H34.3773V49.9672H56.4818C56.4818 49.9672 67.0906 51.1637 67.0906 34.5283C67.0906 17.8931 57.831 18.4831 57.831 18.4831H52.3049V26.2023C52.3049 26.2023 52.6028 35.4104 43.1932 35.4104H27.5017C27.5017 35.4104 18.6858 35.2688 18.6858 43.8836V58.1276C18.6858 58.1276 17.3472 66.7476 34.6729 66.7476H34.6731ZM43.3967 61.7669C43.0229 61.7672 42.6526 61.6943 42.3071 61.5521C41.9617 61.41 41.6478 61.2015 41.3834 60.9387C41.1191 60.6758 40.9094 60.3636 40.7665 60.0201C40.6236 59.6765 40.5502 59.3083 40.5506 58.9366C40.5502 58.5648 40.6236 58.1965 40.7664 57.853C40.9093 57.5094 41.119 57.1972 41.3833 56.9343C41.6477 56.6714 41.9616 56.4629 42.3071 56.3208C42.6526 56.1786 43.0228 56.1056 43.3967 56.106C43.7706 56.1056 44.1408 56.1786 44.4863 56.3207C44.8317 56.4628 45.1456 56.6713 45.41 56.9342C45.6743 57.1971 45.884 57.5092 46.0269 57.8528C46.1698 58.1963 46.2432 58.5645 46.2429 58.9363C46.2432 59.3081 46.1698 59.6763 46.0269 60.0198C45.884 60.3634 45.6743 60.6755 45.41 60.9384C45.1456 61.2013 44.8317 61.4098 44.4863 61.5519C44.1408 61.694 43.7706 61.767 43.3967 61.7666V61.7669Z" fill="#EAE7C7"/>
</svg>
