<svg width="68" height="68" viewBox="0 0 68 68" fill="none" xmlns="http://www.w3.org/2000/svg">
<path d="M33.9387 1.26953C17.36 1.26953 18.3951 8.41912 18.3951 8.41912L18.4135 15.8263H34.2343V18.0502H12.1297C12.1297 18.0502 1.521 16.8537 1.521 33.4886C1.521 50.124 10.7806 49.534 10.7806 49.534H16.3066V41.8146C16.3066 41.8146 16.0087 32.6064 25.4184 32.6064H41.1098C41.1098 32.6064 49.9257 32.7481 49.9257 24.1335V9.88973C49.9257 9.88973 51.2647 1.26953 33.9387 1.26953ZM25.2151 6.25072C25.589 6.25039 25.9592 6.32337 26.3047 6.46549C26.6502 6.60761 26.964 6.81607 27.2284 7.07896C27.4928 7.34185 27.7024 7.654 27.8453 7.99754C27.9882 8.34108 28.0616 8.70928 28.0613 9.08106C28.0616 9.45284 27.9882 9.82104 27.8453 10.1646C27.7024 10.5081 27.4928 10.8203 27.2284 11.0832C26.964 11.346 26.6502 11.5545 26.3047 11.6966C25.9592 11.8388 25.589 11.9117 25.2151 11.9114C24.8413 11.9117 24.471 11.8388 24.1255 11.6966C23.7801 11.5545 23.4662 11.346 23.2018 11.0832C22.9375 10.8203 22.7278 10.5081 22.5849 10.1646C22.442 9.82104 22.3686 9.45284 22.369 9.08106C22.3686 8.70928 22.442 8.34108 22.5849 7.99754C22.7278 7.654 22.9375 7.34185 23.2018 7.07896C23.4662 6.81607 23.7801 6.60761 24.1255 6.46549C24.471 6.32337 24.8413 6.25039 25.2151 6.25072Z" fill="#EAE7C7"/>
<path d="M34.4114 65.8755C50.9902 65.8755 49.955 58.7259 49.955 58.7259L49.9366 51.319H34.1155V49.0952H56.2201C56.2201 49.0952 66.8289 50.2916 66.8289 33.6562C66.8289 17.021 57.5693 17.611 57.5693 17.611H52.0432V25.3302C52.0432 25.3302 52.3411 34.5384 42.9314 34.5384H27.24C27.24 34.5384 18.4241 34.3967 18.4241 43.0116V57.2556C18.4241 57.2556 17.0854 65.8755 34.4111 65.8755H34.4114ZM43.135 60.8949C42.7611 60.8952 42.3909 60.8222 42.0454 60.6801C41.7 60.538 41.3861 60.3295 41.1217 60.0666C40.8574 59.8037 40.6477 59.4916 40.5048 59.148C40.3619 58.8045 40.2885 58.4363 40.2888 58.0645C40.2885 57.6927 40.3618 57.3245 40.5047 56.9809C40.6476 56.6373 40.8573 56.3252 41.1216 56.0622C41.386 55.7993 41.6999 55.5908 42.0454 55.4487C42.3908 55.3066 42.7611 55.2336 43.135 55.2339C43.5089 55.2336 43.8791 55.3066 44.2246 55.4487C44.57 55.5908 44.8839 55.7993 45.1483 56.0622C45.4126 56.325 45.6223 56.6372 45.7652 56.9807C45.9081 57.3243 45.9815 57.6925 45.9811 58.0643C45.9815 58.436 45.9081 58.8042 45.7652 59.1478C45.6223 59.4913 45.4126 59.8035 45.1483 60.0664C44.8839 60.3292 44.57 60.5377 44.2246 60.6798C43.8791 60.822 43.5089 60.8949 43.135 60.8946V60.8949Z" fill="#EAE7C7"/>
</svg>
