<svg width="68" height="68" viewBox="0 0 68 68" fill="none" xmlns="http://www.w3.org/2000/svg">
<path d="M34.4378 40.26C37.6676 40.26 40.2858 37.6563 40.2858 34.4445C40.2858 31.2326 37.6676 28.6289 34.4378 28.6289C31.208 28.6289 28.5897 31.2326 28.5897 34.4445C28.5897 37.6563 31.208 40.26 34.4378 40.26Z" fill="#EAE7C7"/>
<path fill-rule="evenodd" clip-rule="evenodd" d="M6.94038 31.3844C5.6142 32.575 5.17829 33.613 5.17829 34.4444C5.17829 35.2759 5.6142 36.3139 6.94038 37.5044C8.26566 38.6941 10.303 39.8626 13.0016 40.8873C18.3837 42.9308 25.962 44.2389 34.4377 44.2389C42.9135 44.2389 50.4918 42.9308 55.8739 40.8873C58.5725 39.8626 60.6098 38.6941 61.9351 37.5044C63.2613 36.3139 63.6972 35.2759 63.6972 34.4444C63.6972 33.613 63.2613 32.575 61.9351 31.3844C60.6098 30.1947 58.5725 29.0262 55.8739 28.0016C50.4918 25.958 42.9135 24.6499 34.4377 24.6499C25.962 24.6499 18.3837 25.958 13.0016 28.0016C10.303 29.0262 8.26566 30.1947 6.94038 31.3844ZM11.4963 24.0372C17.4714 21.7685 25.583 20.4094 34.4377 20.4094C43.2925 20.4094 51.4041 21.7685 57.3792 24.0372C60.3593 25.1687 62.9174 26.5676 64.7679 28.2289C66.6175 29.8893 67.9377 31.9857 67.9377 34.4444C67.9377 36.9031 66.6175 38.9996 64.7679 40.66C62.9174 42.3212 60.3593 43.7201 57.3792 44.8516C51.4041 47.1204 43.2925 48.4795 34.4377 48.4795C25.583 48.4795 17.4714 47.1204 11.4963 44.8516C8.51621 43.7201 5.95812 42.3212 4.10761 40.66C2.25798 38.9996 0.937744 36.9031 0.937744 34.4444C0.937744 31.9857 2.25798 29.8893 4.10761 28.2289C5.95812 26.5676 8.51621 25.1687 11.4963 24.0372Z" fill="#EAE7C7"/>
<path fill-rule="evenodd" clip-rule="evenodd" d="M23.371 9.23783C21.6732 8.69166 20.5455 8.83249 19.8124 9.2534C19.0793 9.6743 18.3928 10.5751 18.0196 12.3103C17.6463 14.0456 17.6474 16.3828 18.1041 19.2173C19.015 24.8711 21.6637 32.0488 25.9003 39.3461C30.1369 46.6434 35.0634 52.5133 39.5316 56.1247C41.7717 57.9352 43.8066 59.1048 45.5045 59.651C47.2022 60.1972 48.3299 60.0563 49.063 59.6354C49.7961 59.2145 50.4826 58.3137 50.8558 56.5785C51.2291 54.8432 51.228 52.506 50.7713 49.6715C49.8604 44.0177 47.2117 36.84 42.9751 29.5427C38.7385 22.2455 33.8121 16.3755 29.3438 12.7641C27.1037 10.9536 25.0688 9.78404 23.371 9.23783ZM32.0169 9.48101C36.9827 13.4945 42.224 19.8033 46.6526 27.4313C51.0813 35.0594 53.9547 42.7276 54.967 49.011C55.4719 52.145 55.5327 55.0492 55.0111 57.4744C54.4894 59.8997 53.3243 62.0785 51.1921 63.3027C49.0599 64.5269 46.5799 64.4409 44.207 63.6775C41.8341 62.9141 39.3354 61.4097 36.8585 59.4078C31.8927 55.3943 26.6515 49.0856 22.2228 41.4575C17.7941 33.8295 14.9207 26.1612 13.9084 19.8779C13.4035 16.7438 13.3427 13.8397 13.8643 11.4145C14.386 8.98913 15.5511 6.81029 17.6833 5.5861C19.8155 4.36192 22.2955 4.44795 24.6684 5.21136C27.0413 5.97473 29.54 7.47912 32.0169 9.48101Z" fill="#EAE7C7"/>
<path fill-rule="evenodd" clip-rule="evenodd" d="M50.8559 12.3103C50.4826 10.5751 49.7961 9.67429 49.063 9.25339C48.3299 8.83248 47.2022 8.69165 45.5045 9.23782C43.8067 9.78403 41.7718 10.9536 39.5316 12.7641C35.0634 16.3755 30.137 22.2455 25.9003 29.5427C21.6637 36.84 19.015 44.0177 18.1041 49.6715C17.6475 52.506 17.6464 54.8432 18.0196 56.5785C18.3928 58.3137 19.0793 59.2145 19.8124 59.6354C20.5455 60.0563 21.6733 60.1972 23.371 59.651C25.0688 59.1048 27.1037 57.9352 29.3438 56.1247C33.8121 52.5133 38.7385 46.6433 42.9751 39.3461C47.2117 32.0488 49.8605 24.8711 50.7713 19.2173C51.228 16.3828 51.2291 14.0456 50.8559 12.3103ZM54.967 19.8779C53.9547 26.1612 51.0813 33.8295 46.6526 41.4575C42.224 49.0856 36.9827 55.3943 32.0169 59.4078C29.54 61.4097 27.0413 62.9141 24.6685 63.6775C22.2955 64.4409 19.8155 64.5269 17.6833 63.3027C15.5511 62.0785 14.386 59.8997 13.8644 57.4744C13.3427 55.0492 13.4035 52.145 13.9084 49.011C14.9207 42.7276 17.7942 35.0594 22.2228 27.4313C26.6515 19.8032 31.8928 13.4945 36.8586 9.481C39.3354 7.47911 41.8342 5.97472 44.207 5.21135C46.58 4.44794 49.06 4.36191 51.1922 5.58609C53.3244 6.81028 54.4894 8.98912 55.0111 11.4144C55.5327 13.8397 55.472 16.7438 54.967 19.8779Z" fill="#EAE7C7"/>
</svg>
