<svg width="68" height="68" viewBox="0 0 68 68" fill="none" xmlns="http://www.w3.org/2000/svg">
<path d="M34.1741 39.3909C37.4039 39.3909 40.0221 36.7872 40.0221 33.5753C40.0221 30.3635 37.4039 27.7598 34.1741 27.7598C30.9443 27.7598 28.3261 30.3635 28.3261 33.5753C28.3261 36.7872 30.9443 39.3909 34.1741 39.3909Z" fill="#61DAFB"/>
<path fill-rule="evenodd" clip-rule="evenodd" d="M6.67671 30.5153C5.35053 31.7058 4.91462 32.7438 4.91462 33.5753C4.91462 34.4068 5.35053 35.4448 6.67671 36.6353C8.00199 37.825 10.0394 38.9935 12.7379 40.0181C18.12 42.0617 25.6983 43.3698 34.1741 43.3698C42.6498 43.3698 50.2281 42.0617 55.6103 40.0181C58.3088 38.9935 60.3462 37.825 61.6714 36.6353C62.9976 35.4448 63.4335 34.4068 63.4335 33.5753C63.4335 32.7438 62.9976 31.7058 61.6714 30.5153C60.3462 29.3256 58.3088 28.1571 55.6103 27.1325C50.2281 25.0889 42.6498 23.7808 34.1741 23.7808C25.6983 23.7808 18.12 25.0889 12.7379 27.1325C10.0394 28.1571 8.00199 29.3256 6.67671 30.5153ZM11.2326 23.1681C17.2077 20.8993 25.3193 19.5402 34.1741 19.5402C43.0289 19.5402 51.1404 20.8993 57.1155 23.1681C60.0956 24.2996 62.6537 25.6985 64.5042 27.3597C66.3538 29.0202 67.6741 31.1166 67.6741 33.5753C67.6741 36.034 66.3538 38.1305 64.5042 39.7909C62.6537 41.4521 60.0956 42.851 57.1155 43.9825C51.1404 46.2513 43.0289 47.6104 34.1741 47.6104C25.3193 47.6104 17.2077 46.2513 11.2326 43.9825C8.25253 42.851 5.69445 41.4521 3.84393 39.7909C1.99431 38.1305 0.674072 36.034 0.674072 33.5753C0.674072 31.1166 1.99431 29.0202 3.84393 27.3597C5.69445 25.6985 8.25253 24.2996 11.2326 23.1681Z" fill="#61DAFB"/>
<path fill-rule="evenodd" clip-rule="evenodd" d="M23.1073 8.36869C21.4096 7.82252 20.2818 7.96335 19.5487 8.38426C18.8156 8.80516 18.1291 9.70596 17.7559 11.4411C17.3827 13.1764 17.3838 15.5137 17.8404 18.3482C18.7513 24.002 21.4 31.1797 25.6366 38.477C29.8733 45.7742 34.7997 51.6442 39.2679 55.2556C41.5081 57.0661 43.5429 58.2357 45.2408 58.7819C46.9385 59.3281 48.0662 59.1872 48.7993 58.7663C49.5324 58.3454 50.2189 57.4446 50.5922 55.7094C50.9654 53.9741 50.9643 51.6369 50.5076 48.8024C49.5968 43.1486 46.948 35.9709 42.7114 28.6736C38.4748 21.3763 33.5484 15.5064 29.0801 11.895C26.84 10.0845 24.8051 8.91491 23.1073 8.36869ZM31.7532 8.61187C36.719 12.6254 41.9603 18.9341 46.389 26.5622C50.8176 34.1902 53.691 41.8585 54.7033 48.1419C55.2083 51.2759 55.269 54.1801 54.7474 56.6053C54.2257 59.0306 53.0607 61.2094 50.9285 62.4336C48.7963 63.6578 46.3163 63.5718 43.9433 62.8084C41.5705 62.045 39.0717 60.5406 36.5949 58.5387C31.6291 54.5252 26.3878 48.2165 21.9591 40.5884C17.5305 32.9603 14.657 25.2921 13.6447 19.0087C13.1398 15.8747 13.079 12.9705 13.6007 10.5453C14.1223 8.11999 15.2874 5.94115 17.4196 4.71696C19.5518 3.49278 22.0318 3.57881 24.4048 4.34222C26.7776 5.10559 29.2763 6.60998 31.7532 8.61187Z" fill="#61DAFB"/>
<path fill-rule="evenodd" clip-rule="evenodd" d="M50.5922 11.4411C50.219 9.70595 49.5325 8.80515 48.7994 8.38425C48.0663 7.96334 46.9385 7.82251 45.2408 8.36868C43.543 8.9149 41.5081 10.0845 39.268 11.895C34.7997 15.5064 29.8733 21.3763 25.6367 28.6736C21.4001 35.9709 18.7513 43.1486 17.8405 48.8024C17.3838 51.6369 17.3827 53.9741 17.7559 55.7094C18.1292 57.4446 18.8157 58.3454 19.5488 58.7663C20.2819 59.1872 21.4096 59.3281 23.1073 58.7819C24.8051 58.2357 26.84 57.0661 29.0802 55.2556C33.5484 51.6442 38.4748 45.7742 42.7115 38.477C46.9481 31.1797 49.5968 24.002 50.5077 18.3482C50.9643 15.5137 50.9654 13.1764 50.5922 11.4411ZM54.7034 19.0087C53.6911 25.2921 50.8176 32.9603 46.389 40.5884C41.9603 48.2164 36.719 54.5252 31.7532 58.5387C29.2764 60.5406 26.7776 62.045 24.4048 62.8084C22.0318 63.5718 19.5518 63.6578 17.4196 62.4336C15.2874 61.2094 14.1223 59.0306 13.6007 56.6053C13.0791 54.18 13.1398 51.2759 13.6448 48.1418C14.6571 41.8585 17.5305 34.1902 21.9591 26.5622C26.3878 18.9341 31.6291 12.6254 36.5949 8.61186C39.0718 6.60997 41.5705 5.10558 43.9433 4.34221C46.3163 3.5788 48.7963 3.49277 50.9285 4.71695C53.0607 5.94114 54.2258 8.11998 54.7474 10.5453C55.2691 12.9705 55.2083 15.8746 54.7034 19.0087Z" fill="#61DAFB"/>
</svg>
