<svg width="67" height="68" viewBox="0 0 67 68" fill="none" xmlns="http://www.w3.org/2000/svg">
<path d="M33.4378 40.26C36.6676 40.26 39.2858 37.6563 39.2858 34.4445C39.2858 31.2326 36.6676 28.6289 33.4378 28.6289C30.208 28.6289 27.5897 31.2326 27.5897 34.4445C27.5897 37.6563 30.208 40.26 33.4378 40.26Z" fill="#61DAFB"/>
<path fill-rule="evenodd" clip-rule="evenodd" d="M5.94038 31.3844C4.6142 32.575 4.17829 33.613 4.17829 34.4444C4.17829 35.2759 4.6142 36.3139 5.94038 37.5044C7.26566 38.6941 9.30304 39.8626 12.0016 40.8873C17.3837 42.9308 24.962 44.2389 33.4377 44.2389C41.9135 44.2389 49.4918 42.9308 54.8739 40.8873C57.5725 39.8626 59.6098 38.6941 60.9351 37.5044C62.2613 36.3139 62.6972 35.2759 62.6972 34.4444C62.6972 33.613 62.2613 32.575 60.9351 31.3844C59.6098 30.1947 57.5725 29.0262 54.8739 28.0016C49.4918 25.958 41.9135 24.6499 33.4377 24.6499C24.962 24.6499 17.3837 25.958 12.0016 28.0016C9.30304 29.0262 7.26566 30.1947 5.94038 31.3844ZM10.4963 24.0372C16.4714 21.7685 24.583 20.4094 33.4377 20.4094C42.2925 20.4094 50.4041 21.7685 56.3792 24.0372C59.3593 25.1687 61.9174 26.5676 63.7679 28.2289C65.6175 29.8893 66.9377 31.9857 66.9377 34.4444C66.9377 36.9031 65.6175 38.9996 63.7679 40.66C61.9174 42.3212 59.3593 43.7201 56.3792 44.8516C50.4041 47.1204 42.2925 48.4795 33.4377 48.4795C24.583 48.4795 16.4714 47.1204 10.4963 44.8516C7.51621 43.7201 4.95812 42.3212 3.10761 40.66C1.25798 38.9996 -0.0622559 36.9031 -0.0622559 34.4444C-0.0622559 31.9857 1.25798 29.8893 3.10761 28.2289C4.95812 26.5676 7.51621 25.1687 10.4963 24.0372Z" fill="#61DAFB"/>
<path fill-rule="evenodd" clip-rule="evenodd" d="M22.371 9.23783C20.6732 8.69166 19.5455 8.83249 18.8124 9.2534C18.0793 9.6743 17.3928 10.5751 17.0196 12.3103C16.6463 14.0456 16.6474 16.3828 17.1041 19.2173C18.015 24.8711 20.6637 32.0488 24.9003 39.3461C29.1369 46.6434 34.0634 52.5133 38.5316 56.1247C40.7717 57.9352 42.8066 59.1048 44.5045 59.651C46.2022 60.1972 47.3299 60.0563 48.063 59.6354C48.7961 59.2145 49.4826 58.3137 49.8558 56.5785C50.2291 54.8432 50.228 52.506 49.7713 49.6715C48.8604 44.0177 46.2117 36.84 41.9751 29.5427C37.7385 22.2455 32.8121 16.3755 28.3438 12.7641C26.1037 10.9536 24.0688 9.78404 22.371 9.23783ZM31.0169 9.48101C35.9827 13.4945 41.224 19.8033 45.6526 27.4313C50.0813 35.0594 52.9547 42.7276 53.967 49.011C54.4719 52.145 54.5327 55.0492 54.0111 57.4744C53.4894 59.8997 52.3243 62.0785 50.1921 63.3027C48.0599 64.5269 45.5799 64.4409 43.207 63.6775C40.8341 62.9141 38.3354 61.4097 35.8585 59.4078C30.8927 55.3943 25.6515 49.0856 21.2228 41.4575C16.7941 33.8295 13.9207 26.1612 12.9084 19.8779C12.4035 16.7438 12.3427 13.8397 12.8643 11.4145C13.386 8.98913 14.5511 6.81029 16.6833 5.5861C18.8155 4.36192 21.2955 4.44795 23.6684 5.21136C26.0413 5.97473 28.54 7.47912 31.0169 9.48101Z" fill="#61DAFB"/>
<path fill-rule="evenodd" clip-rule="evenodd" d="M49.8559 12.3103C49.4826 10.5751 48.7961 9.67429 48.063 9.25339C47.3299 8.83248 46.2022 8.69165 44.5045 9.23782C42.8067 9.78403 40.7718 10.9536 38.5316 12.7641C34.0634 16.3755 29.137 22.2455 24.9003 29.5427C20.6637 36.84 18.015 44.0177 17.1041 49.6715C16.6475 52.506 16.6464 54.8432 17.0196 56.5785C17.3928 58.3137 18.0793 59.2145 18.8124 59.6354C19.5455 60.0563 20.6733 60.1972 22.371 59.651C24.0688 59.1048 26.1037 57.9352 28.3438 56.1247C32.8121 52.5133 37.7385 46.6433 41.9751 39.3461C46.2117 32.0488 48.8605 24.8711 49.7713 19.2173C50.228 16.3828 50.2291 14.0456 49.8559 12.3103ZM53.967 19.8779C52.9547 26.1612 50.0813 33.8295 45.6526 41.4575C41.224 49.0856 35.9827 55.3943 31.0169 59.4078C28.54 61.4097 26.0413 62.9141 23.6685 63.6775C21.2955 64.4409 18.8155 64.5269 16.6833 63.3027C14.5511 62.0785 13.386 59.8997 12.8644 57.4744C12.3427 55.0492 12.4035 52.145 12.9084 49.011C13.9207 42.7276 16.7942 35.0594 21.2228 27.4313C25.6515 19.8032 30.8928 13.4945 35.8586 9.481C38.3354 7.47911 40.8342 5.97472 43.207 5.21135C45.58 4.44794 48.06 4.36191 50.1922 5.58609C52.3244 6.81028 53.4894 8.98912 54.0111 11.4144C54.5327 13.8397 54.472 16.7438 53.967 19.8779Z" fill="#61DAFB"/>
</svg>
