<svg width="68" height="68" viewBox="0 0 68 68" fill="none" xmlns="http://www.w3.org/2000/svg">
<path d="M34.4377 14.5684C25.6011 14.5684 20.0785 18.9854 17.8691 27.8188C21.1832 23.4017 25.0491 21.7459 29.4671 22.8498C31.988 23.4796 33.7897 25.3086 35.7844 27.3323C39.033 30.629 42.7929 34.4444 51.0064 34.4444C59.8422 34.4444 65.3657 30.0273 67.5742 21.1932C64.261 25.6102 60.395 27.2669 55.9762 26.163C53.4561 25.5332 51.6545 23.7042 49.6597 21.6804C46.4111 18.3838 42.6504 14.5684 34.4377 14.5684ZM17.8691 34.4444C9.03325 34.4444 3.50982 38.8615 1.30127 47.6957C4.6145 43.2786 8.4805 41.622 12.8992 42.7266C15.4194 43.3573 17.221 45.1855 19.2158 47.2084C22.4644 50.505 26.2251 54.3213 34.4377 54.3213C43.2744 54.3213 48.797 49.9042 51.0064 41.07C47.6923 45.4871 43.8263 47.1437 39.4084 46.039C36.8875 45.41 35.0858 43.5802 33.0911 41.5573C29.8425 38.2607 26.0826 34.4444 17.8691 34.4444Z" fill="#EAE7C7"/>
</svg>
