<svg width="68" height="68" viewBox="0 0 68 68" fill="none" xmlns="http://www.w3.org/2000/svg">
<path d="M34.1743 13.6973C25.3377 13.6973 19.8151 18.1144 17.6057 26.9477C20.9197 22.5306 24.7857 20.8748 29.2037 21.9787C31.7246 22.6085 33.5263 24.4375 35.521 26.4612C38.7696 29.7579 42.5295 33.5733 50.743 33.5733C59.5788 33.5733 65.1023 29.1562 67.3108 20.3221C63.9976 24.7391 60.1316 26.3958 55.7129 25.2919C53.1927 24.6621 51.3911 22.8331 49.3963 20.8094C46.1477 17.5127 42.387 13.6973 34.1743 13.6973ZM17.6057 33.5733C8.76983 33.5733 3.24639 37.9904 1.03784 46.8246C4.35108 42.4075 8.21707 40.7509 12.6358 41.8556C15.156 42.4862 16.9576 44.3144 18.9524 46.3373C22.2009 49.6339 25.9617 53.4502 34.1743 53.4502C43.011 53.4502 48.5336 49.0331 50.743 40.1989C47.4289 44.616 43.5629 46.2726 39.145 45.168C36.624 44.539 34.8224 42.7091 32.8277 40.6862C29.5791 37.3896 25.8192 33.5733 17.6057 33.5733Z" fill="#06B6D4"/>
</svg>
