<svg width="67" height="68" viewBox="0 0 67 68" fill="none" xmlns="http://www.w3.org/2000/svg">
<path d="M33.4377 14.5684C24.6011 14.5684 19.0785 18.9854 16.8691 27.8188C20.1832 23.4017 24.0491 21.7459 28.4671 22.8498C30.988 23.4796 32.7897 25.3086 34.7844 27.3323C38.033 30.629 41.7929 34.4444 50.0064 34.4444C58.8422 34.4444 64.3657 30.0273 66.5742 21.1932C63.261 25.6102 59.395 27.2669 54.9762 26.163C52.4561 25.5332 50.6545 23.7042 48.6597 21.6804C45.4111 18.3838 41.6504 14.5684 33.4377 14.5684ZM16.8691 34.4444C8.03325 34.4444 2.50982 38.8615 0.30127 47.6957C3.6145 43.2786 7.4805 41.622 11.8992 42.7266C14.4194 43.3573 16.221 45.1855 18.2158 47.2084C21.4644 50.505 25.2251 54.3213 33.4377 54.3213C42.2744 54.3213 47.797 49.9042 50.0064 41.07C46.6923 45.4871 42.8263 47.1437 38.4084 46.039C35.8875 45.41 34.0858 43.5802 32.0911 41.5573C28.8425 38.2607 25.0826 34.4444 16.8691 34.4444Z" fill="#06B6D4"/>
</svg>
