<svg width="68" height="68" viewBox="0 0 68 68" fill="none" xmlns="http://www.w3.org/2000/svg">
<path d="M0.670654 0.0722656H67.6707V67.0723H0.670654V0.0722656Z" fill="#EAE7C7"/>
<path d="M32.842 24.8839H36.0559V30.4323H27.3668V55.1176L27.1365 55.1804C26.8224 55.2641 22.6873 55.2641 21.7974 55.1699L21.0856 55.1071V30.4323H12.3965V24.8839L15.1498 24.8525C16.6573 24.8315 20.5307 24.8315 23.7551 24.8525C26.9795 24.8734 31.0623 24.8839 32.842 24.8839V24.8839ZM57.3703 52.5004C56.0931 53.8509 54.7217 54.6046 52.4395 55.2223C51.445 55.4944 51.2775 55.5049 49.0372 55.4945C46.7968 55.484 46.6189 55.484 45.5301 55.2013C42.714 54.479 40.4423 53.0657 38.8929 51.0662C38.4532 50.5009 37.7309 49.3284 37.7309 49.1818C37.7309 49.1399 37.8356 49.0457 37.9717 48.9829C38.1078 48.9201 38.3904 48.7421 38.6207 48.606C38.8511 48.4699 39.2698 48.2187 39.5525 48.0721C39.8351 47.9256 40.6517 47.444 41.3636 47.0148C42.0754 46.5856 42.7245 46.2401 42.7978 46.2401C42.8711 46.2401 43.0072 46.3866 43.1118 46.5646C43.74 47.622 45.2056 48.9724 46.242 49.4331C46.8806 49.7052 48.2939 50.0088 48.9743 50.0088C49.6025 50.0088 50.754 49.7366 51.3717 49.454C52.0312 49.1504 52.3662 48.8468 52.764 48.2396C53.0362 47.8104 53.0676 47.6952 53.0572 46.8787C53.0572 46.1249 53.0153 45.9156 52.8059 45.5701C52.2197 44.607 51.424 44.1045 48.1997 42.6807C44.8706 41.2046 43.3736 40.3253 42.1592 39.1423C41.2589 38.2629 41.0809 38.0221 40.5156 36.9229C39.7828 35.5096 39.6886 35.049 39.6781 32.9448C39.6676 31.4687 39.699 30.9871 39.8561 30.4846C40.0759 29.7309 40.7878 28.2757 41.1123 27.9093C41.7823 27.1242 42.0231 26.8834 42.4942 26.4961C43.9179 25.3236 46.1373 24.5489 48.2625 24.4756C48.5033 24.4756 49.2989 24.5175 50.0422 24.5698C52.1778 24.7478 53.6329 25.2712 55.0358 26.3914C56.0931 27.2289 57.6948 29.197 57.5378 29.4587C57.4331 29.6157 53.2561 32.4004 52.9839 32.4842C52.8164 32.5365 52.7012 32.4737 52.4709 32.2015C51.0472 30.4951 50.4714 30.1287 49.0895 30.045C48.1054 29.9821 47.582 30.0973 46.9225 30.537C46.2315 30.9976 45.8965 31.699 45.8965 32.6726C45.907 34.0964 46.4514 34.7664 48.4614 35.7609C49.7595 36.3995 50.8692 36.9229 50.9529 36.9229C51.0786 36.9229 53.769 38.2629 54.4705 38.6817C57.7367 40.5974 59.0662 42.5656 59.4117 45.9574C59.663 48.5118 58.9406 50.8463 57.3703 52.5004V52.5004Z" fill="black"/>
</svg>
