<svg width="68" height="68" viewBox="0 0 68 68" fill="none" xmlns="http://www.w3.org/2000/svg">
<path d="M0.937744 0.944336H67.9377V67.9443H0.937744V0.944336Z" fill="#EAE7C7"/>
<path d="M33.1083 25.755H36.3223V31.3034H27.6332V55.9887L27.4029 56.0515C27.0888 56.1353 22.9536 56.1353 22.0638 56.0411L21.3519 55.9782V31.3034H12.6628V25.755L15.4161 25.7236C16.9236 25.7026 20.7971 25.7026 24.0215 25.7236C27.2458 25.7445 31.3287 25.755 33.1083 25.755V25.755ZM57.6367 53.3715C56.3595 54.722 54.9881 55.4757 52.7059 56.0934C51.7113 56.3656 51.5438 56.3761 49.3035 56.3656C47.0632 56.3551 46.8852 56.3551 45.7965 56.0725C42.9804 55.3501 40.7087 53.9368 39.1593 51.9373C38.7196 51.372 37.9973 50.1995 37.9973 50.0529C37.9973 50.0111 38.1019 49.9168 38.238 49.854C38.3741 49.7912 38.6568 49.6132 38.8871 49.4771C39.1174 49.3411 39.5362 49.0898 39.8188 48.9432C40.1015 48.7967 40.918 48.3151 41.6299 47.8859C42.3418 47.4567 42.9909 47.1112 43.0641 47.1112C43.1374 47.1112 43.2735 47.2578 43.3782 47.4357C44.0063 48.4931 45.472 49.8436 46.5084 50.3042C47.147 50.5764 48.5602 50.88 49.2407 50.88C49.8688 50.88 51.0204 50.6078 51.6381 50.3251C52.2976 50.0215 52.6326 49.7179 53.0304 49.1107C53.3026 48.6815 53.334 48.5664 53.3235 47.7498C53.3235 46.9961 53.2817 46.7867 53.0723 46.4412C52.486 45.4781 51.6904 44.9756 48.466 43.5518C45.137 42.0757 43.6399 41.1964 42.4255 40.0134C41.5252 39.134 41.3473 38.8932 40.782 37.794C40.0491 36.3807 39.9549 35.9201 39.9445 33.8159C39.934 32.3398 39.9654 31.8582 40.1224 31.3557C40.3423 30.602 41.0541 29.1468 41.3787 28.7804C42.0487 27.9953 42.2895 27.7545 42.7605 27.3671C44.1843 26.1946 46.4037 25.42 48.5288 25.3467C48.7696 25.3467 49.5652 25.3886 50.3085 25.4409C52.4442 25.6189 53.8993 26.1423 55.3021 27.2625C56.3595 28.1 57.9612 30.0681 57.8042 30.3298C57.6995 30.4868 53.5224 33.2715 53.2503 33.3553C53.0828 33.4076 52.9676 33.3448 52.7373 33.0726C51.3135 31.3662 50.7377 30.9998 49.3559 30.9161C48.3718 30.8532 47.8484 30.9684 47.1888 31.4081C46.4979 31.8687 46.1629 32.5701 46.1629 33.5437C46.1734 34.9675 46.7177 35.6375 48.7277 36.632C50.0259 37.2706 51.1356 37.794 51.2193 37.794C51.3449 37.794 54.0354 39.134 54.7368 39.5528C58.0031 41.4686 59.3326 43.4367 59.6781 46.8286C59.9293 49.3829 59.207 51.7175 57.6367 53.3715V53.3715Z" fill="black"/>
</svg>
