<svg width="67" height="68" viewBox="0 0 67 68" fill="none" xmlns="http://www.w3.org/2000/svg">
<path d="M-0.0622559 0.944336H66.9377V67.9443H-0.0622559V0.944336Z" fill="#017ACB"/>
<path d="M32.1083 25.755H35.3223V31.3034H26.6332V55.9887L26.4029 56.0515C26.0888 56.1353 21.9536 56.1353 21.0638 56.0411L20.3519 55.9782V31.3034H11.6628V25.755L14.4161 25.7236C15.9236 25.7026 19.7971 25.7026 23.0215 25.7236C26.2458 25.7445 30.3287 25.755 32.1083 25.755V25.755ZM56.6367 53.3715C55.3595 54.722 53.9881 55.4757 51.7059 56.0934C50.7113 56.3656 50.5438 56.3761 48.3035 56.3656C46.0632 56.3551 45.8852 56.3551 44.7965 56.0725C41.9804 55.3501 39.7087 53.9368 38.1593 51.9373C37.7196 51.372 36.9973 50.1995 36.9973 50.0529C36.9973 50.0111 37.1019 49.9168 37.238 49.854C37.3741 49.7912 37.6568 49.6132 37.8871 49.4771C38.1174 49.3411 38.5362 49.0898 38.8188 48.9432C39.1015 48.7967 39.918 48.3151 40.6299 47.8859C41.3418 47.4567 41.9909 47.1112 42.0641 47.1112C42.1374 47.1112 42.2735 47.2578 42.3782 47.4357C43.0063 48.4931 44.472 49.8436 45.5084 50.3042C46.147 50.5764 47.5602 50.88 48.2407 50.88C48.8688 50.88 50.0204 50.6078 50.6381 50.3251C51.2976 50.0215 51.6326 49.7179 52.0304 49.1107C52.3026 48.6815 52.334 48.5664 52.3235 47.7498C52.3235 46.9961 52.2817 46.7867 52.0723 46.4412C51.486 45.4781 50.6904 44.9756 47.466 43.5518C44.137 42.0757 42.6399 41.1964 41.4255 40.0134C40.5252 39.134 40.3473 38.8932 39.782 37.794C39.0491 36.3807 38.9549 35.9201 38.9445 33.8159C38.934 32.3398 38.9654 31.8582 39.1224 31.3557C39.3423 30.602 40.0541 29.1468 40.3787 28.7804C41.0487 27.9953 41.2895 27.7545 41.7605 27.3671C43.1843 26.1946 45.4037 25.42 47.5288 25.3467C47.7696 25.3467 48.5652 25.3886 49.3085 25.4409C51.4442 25.6189 52.8993 26.1423 54.3021 27.2625C55.3595 28.1 56.9612 30.0681 56.8042 30.3298C56.6995 30.4868 52.5224 33.2715 52.2503 33.3553C52.0828 33.4076 51.9676 33.3448 51.7373 33.0726C50.3135 31.3662 49.7377 30.9998 48.3559 30.9161C47.3718 30.8532 46.8484 30.9684 46.1888 31.4081C45.4979 31.8687 45.1629 32.5701 45.1629 33.5437C45.1734 34.9675 45.7177 35.6375 47.7277 36.632C49.0259 37.2706 50.1356 37.794 50.2193 37.794C50.3449 37.794 53.0354 39.134 53.7368 39.5528C57.0031 41.4686 58.3326 43.4367 58.6781 46.8286C58.9293 49.3829 58.207 51.7175 56.6367 53.3715V53.3715Z" fill="black"/>
</svg>
