<svg width="68" height="68" viewBox="0 0 68 68" fill="none" xmlns="http://www.w3.org/2000/svg">
<path d="M36.9715 13.4097L47.3433 19.3962C47.7163 19.6054 47.7254 20.1968 47.3433 20.397L35.0155 27.5116C34.6425 27.73 34.2057 27.7118 33.8509 27.5116L21.5322 20.397C21.1592 20.1877 21.141 19.5963 21.5322 19.3962L31.8948 13.4097V1.69141L5.43774 16.967V47.5182L15.5912 41.6591V29.6861C15.5821 29.2585 16.0915 28.9582 16.4646 29.1857L28.7924 36.3004C29.1654 36.5187 29.3747 36.9099 29.3747 37.3102V51.5396C29.3838 51.9672 28.8834 52.2674 28.5104 52.04L18.1386 46.0535L7.9761 51.9217L34.4332 67.1973L60.8903 51.9217L50.746 46.0625L40.3742 52.0491C40.0103 52.2674 39.4917 51.9854 39.5099 51.5487V37.3193C39.5099 36.8917 39.7465 36.5096 40.0922 36.3094L52.4109 29.1948C52.7748 28.9673 53.2934 29.2585 53.2843 29.6952V41.6682L63.4377 47.5273V16.967L36.9715 1.69141V13.4097Z" fill="#EAE7C7"/>
</svg>
