<svg width="68" height="68" viewBox="0 0 68 68" fill="none" xmlns="http://www.w3.org/2000/svg">
<path d="M36.7071 12.5542L47.0789 18.5407C47.4519 18.75 47.461 19.3414 47.0789 19.5415L34.7511 26.6562C34.378 26.8745 33.9413 26.8563 33.5865 26.6562L21.2678 19.5415C20.8948 19.3323 20.8766 18.7409 21.2678 18.5407L31.6304 12.5542V0.835938L5.17334 16.1115V46.6628L15.3268 40.8036V28.8306C15.3177 28.403 15.8271 28.1028 16.2002 28.3302L28.528 35.4449C28.901 35.6632 29.1103 36.0544 29.1103 36.4548V50.6841C29.1194 51.1117 28.619 51.4119 28.246 51.1845L17.8742 45.198L7.71169 51.0662L34.1688 66.3418L60.6259 51.0662L50.4816 45.2071L40.1098 51.1936C39.7459 51.4119 39.2273 51.1299 39.2455 50.6932V36.4639C39.2455 36.0363 39.482 35.6541 39.8278 35.454L52.1465 28.3393C52.5104 28.1119 53.029 28.403 53.0199 28.8397V40.8127L63.1733 46.6719V16.1115L36.7071 0.835938V12.5542Z" fill="#EAE7C7"/>
</svg>
