<svg width="67" height="68" viewBox="0 0 67 68" fill="none" xmlns="http://www.w3.org/2000/svg">
<path d="M35.9715 13.4097L46.3433 19.3962C46.7163 19.6054 46.7254 20.1968 46.3433 20.397L34.0155 27.5116C33.6425 27.73 33.2057 27.7118 32.8509 27.5116L20.5322 20.397C20.1592 20.1877 20.141 19.5963 20.5322 19.3962L30.8948 13.4097V1.69141L4.43774 16.967V47.5182L14.5912 41.6591V29.6861C14.5821 29.2585 15.0915 28.9582 15.4646 29.1857L27.7924 36.3004C28.1654 36.5187 28.3747 36.9099 28.3747 37.3102V51.5396C28.3838 51.9672 27.8834 52.2674 27.5104 52.04L17.1386 46.0535L6.9761 51.9217L33.4332 67.1973L59.8903 51.9217L49.746 46.0625L39.3742 52.0491C39.0103 52.2674 38.4917 51.9854 38.5099 51.5487V37.3193C38.5099 36.8917 38.7465 36.5096 39.0922 36.3094L51.4109 29.1948C51.7748 28.9673 52.2934 29.2585 52.2843 29.6952V41.6682L62.4377 47.5273V16.967L35.9715 1.69141V13.4097Z" fill="white"/>
</svg>
